<?xml version="1.0" encoding="UTF-8"?>
<svg width="94px" height="26px" viewBox="0 0 94 26" version="1.1" xmlns="http://www.w3.org/2000/svg" xmlns:xlink="http://www.w3.org/1999/xlink">
    <!-- Generator: Sketch 46.2 (44496) - http://www.bohemiancoding.com/sketch -->
    <title>mongodb</title>
    <desc>Created with Sketch.</desc>
    <defs>
        <path d="M2.08541703,0.0149150216 L1.42033448,0.235075302 C1.42033448,0.235075302 1.50515409,3.60122629 0.291174784,3.83692759 C-0.50933944,4.76448254 0.414397414,43.4584526 3.32254914,3.96949569 C3.32254914,3.96949569 2.32717845,3.46970151 2.13875948,2.62095043 C1.95040711,1.7716222 2.08541703,0.0149150216 2.08541703,0.0149150216 L2.08541703,0.0149150216 Z" id="path-1"></path>
        <linearGradient x1="-70.4431054%" y1="56.0454455%" x2="160.735797%" y2="44.1472733%" id="linearGradient-3">
            <stop stop-color="#929669" offset="0%"></stop>
            <stop stop-color="#929669" offset="23.0769%"></stop>
            <stop stop-color="#FDFCF1" offset="100%"></stop>
        </linearGradient>
        <path d="M1.02329612,0.00233081897 C1.02329612,0.00233081897 6.80246185,3.80864698 5.44854461,11.7135862 C4.14466228,17.4566797 1.06620539,19.3446875 0.735406681,20.0654655 C0.371221767,20.5755819 0.0044174569,21.4797177 0.0044174569,21.4797177 L0.250241164,5.47777974 C0.250241164,5.47777974 -0.258232543,0.591717241 1.02329612,0.00233081897 Z" id="path-4"></path>
        <linearGradient x1="-16.6073557%" y1="99.2992429%" x2="78.1504823%" y2="2.53574843%" id="linearGradient-6">
            <stop stop-color="#45AA3A" offset="0%"></stop>
            <stop stop-color="#3D9439" offset="100%"></stop>
        </linearGradient>
        <path d="M5.14427284,0.0116096983 C5.14427284,0.0116096983 -0.276785862,3.70979806 0.0351183606,10.2348703 C0.34710778,16.7601422 4.17596185,19.9684591 4.92169073,20.5504978 C5.40381509,21.0643879 5.42374914,21.2623966 5.46104224,21.7694052 C5.7989444,21.0435216 5.74276056,10.9272789 5.77856638,9.74486552 C5.91748319,5.14203082 5.52364138,0.880472414 5.14427284,0.0116096983 Z" id="path-7"></path>
        <linearGradient x1="-9.62444561%" y1="43.9043949%" x2="152.344354%" y2="53.6889702%" id="linearGradient-9">
            <stop stop-color="#41A83B" offset="0%"></stop>
            <stop stop-color="#5EBC44" offset="100%"></stop>
        </linearGradient>
    </defs>
    <g id="Page-1" stroke="none" stroke-width="1" fill="none" fill-rule="evenodd">
        <g id="mongodb">
            <g id="g10" transform="translate(47.082543, 12.846142) scale(-1, 1) rotate(-180.000000) translate(-47.082543, -12.846142) translate(0.133190, 0.082134)">
                <g id="g12" transform="translate(0.199784, 0.000000)">
                    <g id="g14" transform="translate(4.062284, 0.621552)">
                        <g id="g16-Clipped">
                            <mask id="mask-2" fill="white">
                                <use xlink:href="#path-1"></use>
                            </mask>
                            <g id="path20"></g>
                            <g id="g16" mask="url(#mask-2)" fill-rule="nonzero" fill="url(#linearGradient-3)">
                                <path d="M2.08541703,0.0149150216 L1.42033448,0.235075302 C1.42033448,0.235075302 1.50515409,3.60122629 0.291174784,3.83692759 C-0.50933944,4.76448254 0.414397414,43.4584526 3.32254914,3.96949569 C3.32254914,3.96949569 2.32717845,3.46970151 2.13875948,2.62095043 C1.95040711,1.7716222 2.08541703,0.0149150216 2.08541703,0.0149150216" id="path30"></path>
                            </g>
                        </g>
                    </g>
                    <g id="g32" transform="translate(5.482974, 3.884698)">
                        <g id="g34-Clipped">
                            <mask id="mask-5" fill="white">
                                <use xlink:href="#path-4"></use>
                            </mask>
                            <g id="path38"></g>
                            <g id="g34" mask="url(#mask-5)" fill-rule="nonzero" fill="url(#linearGradient-6)">
                                <path d="M1.02329612,0.00233081897 C1.02329612,0.00233081897 6.80246185,3.80864698 5.44854461,11.7135862 C4.14466228,17.4566797 1.06620539,19.3446875 0.735406681,20.0654655 C0.371221767,20.5755819 0.0044174569,21.4797177 0.0044174569,21.4797177 L0.250241164,5.47777974 C0.250241164,5.47777974 -0.258232543,0.591717241 1.02329612,0.00233081897" id="path46"></path>
                            </g>
                        </g>
                    </g>
                    <g id="g48" transform="translate(0.000000, 3.662716)">
                        <g id="g50-Clipped">
                            <mask id="mask-8" fill="white">
                                <use xlink:href="#path-7"></use>
                            </mask>
                            <g id="path54"></g>
                            <g id="g50" mask="url(#mask-8)" fill-rule="nonzero" fill="url(#linearGradient-9)">
                                <path d="M5.14427284,0.0116096983 C5.14427284,0.0116096983 -0.276785862,3.70979806 0.0351183606,10.2348703 C0.34710778,16.7601422 4.17596185,19.9684591 4.92169073,20.5504978 C5.40381509,21.0643879 5.42374914,21.2623966 5.46104224,21.7694052 C5.7989444,21.0435216 5.74276056,10.9272789 5.77856638,9.74486552 C5.91748319,5.14203082 5.52364138,0.880472414 5.14427284,0.0116096983" id="path62"></path>
                            </g>
                        </g>
                    </g>
                    <path d="M70.6484547,5.78056422 C71.031819,5.47396164 71.7985474,5.34769784 72.4744849,5.34769784 C73.3508728,5.34769784 74.2090582,5.51027802 75.048819,6.26728362 C75.9067823,7.04300237 76.4912629,8.23305194 76.4912629,10.1264095 C76.4912629,11.9477114 75.7973448,13.4264052 74.3733254,14.2919603 C73.5697478,14.7967935 72.5293147,14.9950241 71.3423728,14.9950241 C70.9954138,14.9950241 70.6484547,14.9770657 70.4475603,14.8869851 C70.3927306,14.8509129 70.2830711,14.7066241 70.2830711,14.6343022 C70.2466659,14.30983 70.2466659,11.8394948 70.2466659,10.3789149 C70.2466659,8.88226272 70.2466659,6.79049698 70.2830711,6.53783621 C70.3017177,6.32155841 70.4109332,5.94290022 70.6484547,5.78056422 L70.6484547,5.78056422 Z M67.0039418,15.8065709 C67.3142737,15.8065709 68.4936681,15.7525403 69.0417435,15.7525403 C70.0641961,15.7525403 70.7760948,15.8065709 72.6931379,15.8065709 C74.3000711,15.8065709 75.6515022,15.3737711 76.619125,14.5443769 C77.7878642,13.5344442 78.408528,12.1279836 78.408528,10.4149871 C78.408528,7.98054655 77.2948405,6.57406379 76.181153,5.78056422 C75.0670216,4.95125884 73.6245776,4.48232026 71.5614698,4.48232026 C70.4657629,4.48232026 68.584903,4.51839246 67.014597,4.53617328 L66.9930647,4.53617328 C66.9202543,4.68070625 67.1275862,5.24296638 67.2561142,5.25761724 C67.6805453,5.30565431 67.7955323,5.32194784 67.992653,5.40310474 C68.3240733,5.53951315 68.4024332,5.70841983 68.4392823,6.3036222 C68.4936681,7.42141638 68.4756875,8.75584353 68.4756875,10.2706983 C68.4756875,11.3525091 68.4936681,13.4623886 68.4572629,14.1296466 C68.4024332,14.6885769 68.1655776,14.8326881 67.6905345,14.9410823 C67.4530129,14.9950241 67.1244784,15.0492101 66.6680819,15.1033295 C66.6314547,15.2114573 66.9127069,15.6985097 67.0039418,15.8065709 L67.0039418,15.8065709 Z" id="path64" fill="#C0BDBA" fill-rule="nonzero"></path>
                    <path d="M83.2437565,14.9228797 C83.1709461,14.9048325 83.0794892,14.7244716 83.0794892,14.6343022 C83.0615086,13.9853578 83.043306,12.2902974 83.043306,11.118295 C83.043306,11.0822228 83.0976918,11.0281256 83.1345409,11.0281256 C83.3718405,11.0099009 83.9558772,10.9918759 84.4489009,10.9918759 C85.142819,10.9918759 85.5448297,11.0822228 85.7637047,11.1904394 C86.3479634,11.4787728 86.6216681,12.1099364 86.6216681,12.7951306 C86.6216681,14.3639272 85.5261832,14.9591295 83.9014914,14.9591295 C83.7918319,14.9591295 83.481278,14.9591295 83.2437565,14.9228797 Z M87.3886185,7.70999397 C87.3886185,9.29683772 86.2203233,10.1983763 84.0837392,10.1983763 C83.9925043,10.1983763 83.3167888,10.2165789 83.1525216,10.1803291 C83.0976918,10.1624817 83.043306,10.1264095 83.043306,10.0903373 C83.043306,8.95414073 83.0246595,7.13292759 83.0794892,6.41183879 C83.1161164,6.10521401 83.3354353,5.67234763 83.6091401,5.54619483 C83.9014914,5.38377004 84.5583384,5.34769784 85.0149569,5.34769784 C86.274931,5.34769784 87.3886185,6.05111681 87.3886185,7.70999397 L87.3886185,7.70999397 Z M79.9462026,15.8065709 C80.1104698,15.8065709 80.5966121,15.7525403 81.8379397,15.7525403 C83.0066789,15.7525403 83.9558772,15.7884349 85.0879892,15.7884349 C86.493806,15.7884349 88.4292737,15.2836017 88.4292737,13.191836 C88.4292737,12.1640558 87.6991724,11.3344841 86.7497522,10.9377565 C86.6949224,10.9197315 86.6949224,10.8836593 86.7497522,10.8656121 C88.1009612,10.5232037 89.287681,9.6936319 89.287681,8.10678815 C89.287681,6.55603879 88.3200582,5.58217823 86.9140194,4.96903966 C86.0558341,4.59053685 84.9969763,4.46427306 83.91925,4.46427306 C83.0976918,4.46427306 80.8960668,4.55446466 79.6724978,4.53617328 C79.5444138,4.59053685 79.7897047,5.16760323 79.8989203,5.25761724 C80.1912716,5.27555345 80.4165841,5.29661961 80.7271379,5.38681121 C81.1651099,5.4950278 81.2170539,5.63627543 81.2718836,6.28548621 C81.3087328,6.84435 81.3087328,8.84601293 81.3087328,10.2706983 C81.3087328,12.218153 81.3267134,13.5344442 81.3087328,14.1835662 C81.2900862,14.6885769 81.1076164,14.8509129 80.7606573,14.9410823 C80.4869526,14.9950241 80.030556,15.0492101 79.6653944,15.1033295 C79.5737155,15.1934989 79.8549677,15.7344265 79.9462026,15.8065709 L79.9462026,15.8065709 Z" id="path66" fill="#C0BDBA" fill-rule="nonzero"></path>
                    <path d="M14.6246681,4.49020065 C14.5942343,4.53877047 14.562069,4.68219353 14.5688394,4.85474073 C14.5738563,4.98593254 14.5998726,5.06926487 14.6245127,5.09778966 C14.9688302,5.15217543 15.1318543,5.18884698 15.3254011,5.24061336 C15.6482306,5.32066034 15.7698772,5.4950278 15.7888789,5.90787134 C15.841844,6.8804222 15.8449739,8.70405496 15.8255504,9.98662694 L15.8258168,10.0244306 C15.8272819,10.1619489 15.8294573,10.3501237 15.6566438,10.4827806 C15.403428,10.6496228 15.0877241,10.7875851 14.688244,10.9074114 C14.5353644,10.9526737 14.4508112,11.0330537 14.4553175,11.1270634 C14.4600901,11.2174103 14.5560088,11.3323086 14.7553494,11.3707116 C15.2840235,11.4252528 16.6703946,11.7552968 17.214319,12.0062261 C17.2465065,11.9671349 17.2973183,11.8823153 17.2875067,11.7471278 C17.2834444,11.6902558 17.2784054,11.6307644 17.2734774,11.5691198 C17.2579386,11.3878931 17.2406017,11.1824703 17.2406017,10.9776468 C17.2406017,10.9173119 17.3059756,10.8601513 17.3753453,10.8601513 C17.4106405,10.8601513 17.4432498,10.8739364 17.4697767,10.9001304 C18.5065028,11.7114996 19.4337248,12.0011205 19.9110765,12.0011205 C20.6954748,12.0011205 21.3058386,11.6267022 21.7776407,10.8569547 C21.8052998,10.8161987 21.8424153,10.7946886 21.8839483,10.7946886 C21.9234834,10.7946886 21.9608653,10.8150666 21.9827972,10.8477647 C22.9361466,11.5699856 23.8809052,12.0011205 24.5124461,12.0011205 C26.007278,12.0011205 26.9000927,10.8833929 26.9000927,9.01190065 C26.9000927,8.47410302 26.8945431,7.79246056 26.8898815,7.15608039 C26.8852198,6.59783815 26.8814461,6.0744472 26.8814461,5.71232672 C26.8814461,5.62448815 26.998875,5.38099526 27.1762392,5.33227004 C27.3946703,5.2259625 27.7105517,5.17168772 28.1092328,5.10291746 L28.1245496,5.10040905 C28.1549612,4.99323578 28.0914741,4.57588599 28.0306509,4.49046703 C27.9318685,4.49124397 27.7946832,4.49836961 27.6239784,4.50693815 C27.3136466,4.52289871 26.8883276,4.54432004 26.3930841,4.54432004 C25.3999332,4.54432004 24.8809375,4.52480776 24.38525,4.49282004 C24.3479569,4.61664203 24.3348599,5.01603341 24.3803664,5.09927694 C24.6693879,5.15337414 24.8123448,5.1898903 24.9859353,5.24121272 C25.3020388,5.34536703 25.3930517,5.48852371 25.4114763,5.90787134 C25.4188017,6.20632716 25.4760733,8.8309181 25.3744052,9.4541347 C25.2807284,10.0999491 24.7932543,10.8559114 23.7275151,10.8559114 C23.3321638,10.8559114 22.6932974,10.6916886 22.0843321,10.2304528 C22.0465284,10.1937812 22.0247741,10.1225026 22.0247741,10.0756864 L22.0258841,10.0636994 C22.0976067,9.72726228 22.0976067,9.33497435 22.0976067,8.74134806 C22.0976067,8.40309073 22.0954313,8.04410022 22.0935222,7.6877069 C22.0893711,6.9641097 22.0854642,6.28080237 22.0976067,5.76462586 C22.0976067,5.41273879 22.3105991,5.32880711 22.4819698,5.26099138 C22.5749806,5.24034698 22.6489009,5.22258836 22.7228211,5.20498513 C22.866444,5.17037802 23.0147284,5.13474978 23.2347134,5.09954332 C23.264681,5.03017371 23.2673448,4.8230194 23.226056,4.64585496 C23.2029698,4.54796056 23.1765539,4.50487371 23.162569,4.4908222 C22.6102759,4.50971293 22.0434873,4.52627284 21.2258804,4.52627284 C20.9780588,4.52627284 20.5732955,4.51561767 20.2163028,4.50607241 C19.9269483,4.49836961 19.652844,4.4908222 19.4971009,4.49020065 C19.4745696,4.52585108 19.4430037,4.64003901 19.4430037,4.80455043 C19.4430037,4.95740776 19.4711067,5.06520259 19.4999644,5.09841121 C19.5767039,5.1126181 19.6498028,5.1255375 19.7195276,5.13794634 C19.9113429,5.17210948 20.0769642,5.20125582 20.2359039,5.24034698 C20.5065231,5.32281358 20.608058,5.47309591 20.6278366,5.81681401 C20.6806463,6.61932608 20.7219129,8.93098793 20.6082356,9.50996336 C20.4147776,10.4390056 19.8852377,10.9097644 19.0347552,10.9097644 C18.5360709,10.9097644 17.9067276,10.6701784 17.3920828,10.2848164 C17.3058203,10.2212627 17.2406017,10.0612797 17.2406017,9.91361681 C17.2406017,9.63838039 17.239736,9.31053405 17.2386039,8.95909095 C17.2351409,7.79801013 17.2310565,6.35294677 17.2593371,5.72751034 C17.2766739,5.53533987 17.3436239,5.30652004 17.7064991,5.2221444 C17.7855916,5.20003491 17.9227769,5.1770597 18.0817166,5.15086573 C18.1731957,5.13561552 18.2732655,5.11903341 18.3760879,5.10056444 C18.4130259,5.00120496 18.3904058,4.61151422 18.3270963,4.49020065 C18.1685119,4.49124397 17.9732336,4.50034526 17.749253,4.5101569 C17.4070888,4.52522953 16.981681,4.54432004 16.4966931,4.54432004 C15.926042,4.54432004 15.5286485,4.52522953 15.2095483,4.5101569 C14.9955347,4.50010108 14.8098905,4.49106638 14.6246681,4.49020065 L14.6246681,4.49020065" id="path68" fill="#414044" fill-rule="nonzero"></path>
                    <path d="M32.7389052,11.2344142 C32.406597,11.2344142 32.0962651,11.1474414 31.865403,10.9894562 C31.2314203,10.6042718 30.9086573,9.8352347 30.9086573,8.70554224 C30.9086573,6.58993556 31.9692909,5.1126181 33.487431,5.1126181 C33.9353922,5.1126181 34.3005539,5.24121272 34.6040043,5.50594935 C35.0706121,5.88618362 35.3179009,6.66270151 35.3179009,7.74997306 C35.3179009,9.83419138 34.2814634,11.2344142 32.7389052,11.2344142 L32.7389052,11.2344142 L32.7389052,11.2344142 Z M33.0312565,4.32788685 C30.2879935,4.32788685 29.3106034,6.33787414 29.3106034,8.21855647 C29.3106034,9.53233922 29.8484677,10.5596088 30.9097672,11.2715297 C31.6640647,11.7346524 32.5646487,12.0011205 33.3782155,12.0011205 C35.4717349,12.0011205 36.9341573,10.4976091 36.9341573,8.34464267 C36.9341573,6.88086616 36.3496767,5.72560129 35.2444246,5.00353578 C34.7143297,4.6787306 33.7946552,4.32788685 33.0312565,4.32788685 L33.0312565,4.32788685 L33.0312565,4.32788685 Z" id="path70" fill="#414044" fill-rule="nonzero"></path>
                    <path d="M61.1467047,11.2344142 C60.8139526,11.2344142 60.5033987,11.1474414 60.2727586,10.9894562 C59.6389978,10.6042718 59.3162349,9.83547888 59.3162349,8.70554224 C59.3162349,6.58993556 60.3764246,5.1126181 61.8950086,5.1126181 C62.3429698,5.1126181 62.7081315,5.24121272 63.0115819,5.50612694 C63.4779677,5.88618362 63.7254784,6.66252392 63.7254784,7.74970668 C63.7254784,9.83401379 62.6890409,11.2344142 61.1467047,11.2344142 L61.1467047,11.2344142 L61.1467047,11.2344142 Z M61.4388341,4.32788685 C58.6953491,4.32788685 57.7179591,6.33769655 57.7179591,8.21840108 C57.7179591,9.53251681 58.2562672,10.5598752 59.3175668,11.2717739 C60.0716422,11.73483 60.9722263,12.0011205 61.7855711,12.0011205 C63.8793125,12.0011205 65.3417349,10.4973649 65.3417349,8.34482026 C65.3417349,6.88068858 64.7572543,5.72542371 63.6520022,5.00380216 C63.1219073,4.6787306 62.2024547,4.32788685 61.4388341,4.32788685 L61.4388341,4.32788685 L61.4388341,4.32788685 Z" id="path72" fill="#414044" fill-rule="nonzero"></path>
                    <path d="M51.9666078,11.306381 C51.1210754,11.306381 50.5745539,10.6393006 50.5745539,9.60699203 C50.5745539,8.56516034 51.0444914,7.34867263 52.3686185,7.34867263 C52.5959289,7.34867263 53.0081509,7.44960819 53.212375,7.67454332 C53.5200431,7.95686099 53.7209375,8.54027608 53.7209375,9.15634483 C53.7209375,10.5027369 53.0649784,11.306381 51.9666078,11.306381 L51.9666078,11.306381 Z M51.8573922,4.18386444 C51.5397349,4.18386444 51.3086509,4.09149741 51.1705776,4.01406983 C50.5012996,3.58546552 50.1909677,3.15743836 50.1909677,2.66465884 C50.1909677,2.19988466 50.3716616,1.83066517 50.7596875,1.50237265 C51.229625,1.10462394 51.8633858,0.910997263 52.697153,0.910997263 C54.3367177,0.910997263 55.0719246,1.79181819 55.0719246,2.66465884 C55.0719246,3.27207026 54.7666983,3.67927543 54.138931,3.90949375 C53.6550086,4.08612543 52.8467694,4.18386444 51.8573922,4.18386444 L51.8573922,4.18386444 L51.8573922,4.18386444 Z M51.9666078,0 C50.9818922,0 50.2722134,0.207588509 49.6659784,0.67349125 C49.0763922,1.12812304 48.8122328,1.80230909 48.8122328,2.26821983 C48.8122328,2.40209763 48.8439763,2.74834634 49.1352177,3.07914504 C49.3070323,3.27397931 49.7043815,3.6385194 50.6225022,4.26926121 C50.650694,4.27984978 50.6702284,4.30768642 50.6702284,4.3414056 C50.6702284,4.37905388 50.6460323,4.40948772 50.6127349,4.41659116 C49.8559957,4.70603448 49.6277974,5.1808778 49.5589828,5.43857759 C49.5578728,5.44776767 49.5547651,5.46259612 49.5514353,5.4782903 C49.529681,5.57940345 49.5094806,5.67494483 49.646222,5.77301681 C49.7521078,5.84855754 49.9223685,5.94931552 50.1026185,6.05553427 C50.3685539,6.21247608 50.6700065,6.39032866 50.8369375,6.53324116 C50.8633534,6.55899116 50.8740086,6.59679483 50.8677931,6.63459849 C50.8613556,6.67284612 50.8391573,6.70414569 50.8065259,6.72026164 C49.6866228,7.09616724 49.1227866,7.92704871 49.1227866,9.19241703 C49.1227866,10.0093358 49.4999353,10.7476948 50.1572263,11.2185425 C50.6076293,11.57407 51.7381875,12.0015422 52.4705086,12.0015422 L52.5131293,12.0011205 C53.2667608,11.9832509 53.6914138,11.8256875 54.2792241,11.6082332 C54.5984353,11.4901162 54.9005539,11.4422567 55.3232091,11.4422567 C55.9469806,11.4422567 56.2193534,11.6397103 56.4531013,11.8664435 C56.4664203,11.8383627 56.4983858,11.7492144 56.5125927,11.5439692 C56.5274655,11.3346394 56.470194,11.0244851 56.3099224,10.8031017 C56.1822823,10.6266476 55.8868233,10.4986524 55.6077909,10.4986524 C55.5798211,10.4986524 55.5522953,10.4999621 55.5258793,10.5027369 C55.2386336,10.5309065 55.1036681,10.5727058 55.1023362,10.573394 L55.0319677,10.5488649 C55.0097694,10.516522 55.0241983,10.4804498 55.0424009,10.4349211 C55.0468405,10.4239996 55.0512802,10.4135886 55.0528341,10.4067515 C55.0894612,10.2607978 55.1545022,9.83461315 55.1545022,9.71520862 C55.1545022,8.38826228 54.6304009,7.80946444 54.0639009,7.38152608 C53.5233728,6.97407672 52.8916099,6.72902996 52.1794892,6.65393319 L52.1788233,6.65393319 C52.1643944,6.65393319 52.0969116,6.64787306 51.9608362,6.63590819 C51.873153,6.62791681 51.7639375,6.61803858 51.7477328,6.61803858 L51.73175,6.61595194 C51.6078836,6.58092306 51.2868966,6.4284875 51.2868966,6.14468254 C51.2868966,5.90847069 51.4325172,5.61589741 52.1266573,5.56353168 C52.2673944,5.5529431 52.4183427,5.54246552 52.5759504,5.53169935 C53.4925172,5.4679681 54.6370603,5.38854267 55.1758125,5.20600625 C55.9167909,4.93634159 56.3778491,4.27343448 56.3778491,3.47602802 C56.3778491,2.28511272 55.530097,1.16540948 54.1105172,0.481251961 C53.4219267,0.157382224 52.722681,0 51.9666078,0 L51.9666078,0 L51.9666078,0 Z" id="path74" fill="#414044" fill-rule="nonzero"></path>
                    <path d="M47.4625776,5.12529332 C47.0610108,5.17939052 46.7686595,5.23350991 46.4219224,5.39573491 C46.3670927,5.43180711 46.2938384,5.5941431 46.2938384,5.6482403 C46.2572112,6.20728168 46.2572112,7.83017543 46.2572112,8.89396121 C46.2572112,9.75960517 46.1113685,10.5168772 45.7462069,11.0581155 C45.3080129,11.6710987 44.6873491,12.0317319 43.8837716,12.0317319 C43.1718728,12.0317319 42.2222306,11.5448349 41.4372996,10.8775991 C41.418875,10.8595519 41.2983384,10.7452752 41.3010022,10.9228614 C41.3036659,11.1001812 41.3311918,11.4611696 41.3476185,11.6884356 C41.3642672,11.9156127 41.2279698,12.0226972 41.2279698,12.0226972 C40.7167435,11.7702806 39.2769634,11.4284716 38.7453147,11.3734864 C38.3566228,11.2987448 38.2587284,10.9255474 38.6725043,10.7966864 L38.6725043,10.7965976 C38.6725043,10.7959983 38.6765,10.7953101 38.6787198,10.7945998 C39.1118082,10.6644513 39.4034935,10.5253569 39.6212586,10.3818672 C39.7857478,10.2556034 39.7673233,10.0752425 39.7673233,9.93095366 C39.7855259,8.72287909 39.7855259,6.86532737 39.7306961,5.85566099 C39.7124935,5.45886681 39.6028341,5.3148444 39.3107047,5.24252241 L39.3373427,5.25144612 C39.1182457,5.1976153 38.9355539,5.16136552 38.6618491,5.12529332 C38.5703922,5.03527931 38.5703922,4.51231013 38.6616272,4.40393815 C38.844319,4.40393815 39.7757586,4.45821293 40.5424871,4.45821293 C41.6013448,4.45821293 42.1491983,4.40393815 42.423125,4.40393815 C42.5325625,4.53035733 42.5691897,5.01725431 42.4961573,5.12529332 C42.1856034,5.14331832 41.9665065,5.17939052 41.7474095,5.23350991 C41.4552802,5.30565431 41.3822478,5.44985431 41.3642672,5.77450409 C41.3276401,6.62194547 41.3276401,8.42511142 41.3276401,9.65147737 C41.3276401,9.99408556 41.418875,10.1563994 41.5285345,10.2465909 C41.8934741,10.5712407 42.4961573,10.7873187 43.0258082,10.7873187 C43.5368125,10.7873187 43.8837716,10.6250937 44.1394957,10.4089047 C44.4864547,10.1203272 44.6140948,9.70559677 44.650722,9.39897198 C44.7237543,8.71360022 44.7053297,7.34330065 44.7053297,6.15316228 C44.7053297,5.50395151 44.650722,5.34163772 44.4134224,5.26958211 C44.3037629,5.21537392 44.0116336,5.16136552 43.6646746,5.12529332 C43.5552371,5.01725431 43.5916422,4.51231013 43.6646746,4.40393815 C44.1394957,4.40393815 44.6873491,4.45821293 45.4904828,4.45821293 C46.4949547,4.45821293 47.1338211,4.40393815 47.3895453,4.40393815 C47.4989828,4.53035733 47.5353879,4.99929591 47.4625776,5.12529332" id="path76" fill="#414044" fill-rule="nonzero"></path>
                    <path d="M91.8566875,6.01504461 L92.1656875,6.01504461 C92.4154181,6.01504461 92.5104267,6.10219504 92.5104267,6.32797371 C92.5104267,6.55759267 92.4191918,6.63313341 92.1379397,6.63313341 L91.8566875,6.63313341 L91.8566875,6.01504461 Z M92.5144224,5.0443806 L92.1499267,5.82895647 L91.8566875,5.82895647 L91.8566875,5.0443806 L91.6426961,5.0443806 L91.6426961,6.82727953 L92.1699052,6.82727953 C92.5619267,6.82727953 92.7244181,6.65280108 92.7244181,6.32797371 C92.7244181,6.0667222 92.6014397,5.90023513 92.3719095,5.85246444 L92.7481703,5.0443806 L92.5144224,5.0443806 L92.5144224,5.0443806 Z M92.1699052,7.21921228 C91.4524569,7.21921228 90.8821832,6.65280108 90.8821832,5.93188987 C90.8821832,5.22283254 91.4524569,4.65218147 92.1656875,4.65218147 C92.8749224,4.65218147 93.4454181,5.22283254 93.4454181,5.93188987 C93.4454181,6.65670797 92.8909052,7.21921228 92.1699052,7.21921228 L92.1699052,7.21921228 Z M92.1656875,4.52540711 C91.373431,4.52540711 90.755431,5.14349591 90.755431,5.93570797 C90.755431,6.73213772 91.373431,7.34598664 92.1699052,7.34598664 C92.9464009,7.34598664 93.575944,6.72407974 93.575944,5.95573082 C93.575944,5.15155388 92.9581659,4.52540711 92.1656875,4.52540711 L92.1656875,4.52540711 Z" id="path78" fill="#C0BDBA" fill-rule="nonzero"></path>
                </g>
            </g>
        </g>
    </g>
</svg>