<?xml version="1.0" encoding="UTF-8"?>
<svg width="50px" height="46px" viewBox="0 0 50 46" version="1.1" xmlns="http://www.w3.org/2000/svg" xmlns:xlink="http://www.w3.org/1999/xlink">
    <!-- Generator: Sketch 45.1 (43504) - http://www.bohemiancoding.com/sketch -->
    <title>card__btn-heroku</title>
    <desc>Created with Sketch.</desc>
    <defs>
        <rect id="path-1" x="0" y="0" width="50" height="46"></rect>
        <filter x="-1.0%" y="-1.1%" width="102.0%" height="102.2%" filterUnits="objectBoundingBox" id="filter-2">
            <feOffset dx="0" dy="0" in="SourceAlpha" result="shadowOffsetInner1"></feOffset>
            <feComposite in="shadowOffsetInner1" in2="SourceAlpha" operator="arithmetic" k2="-1" k3="1" result="shadowInnerInner1"></feComposite>
            <feColorMatrix values="0 0 0 0 0.878431373   0 0 0 0 0.878431373   0 0 0 0 0.878431373  0 0 0 1 0" type="matrix" in="shadowInnerInner1" result="shadowMatrixInner1"></feColorMatrix>
            <feOffset dx="-1" dy="1" in="SourceAlpha" result="shadowOffsetInner2"></feOffset>
            <feComposite in="shadowOffsetInner2" in2="SourceAlpha" operator="arithmetic" k2="-1" k3="1" result="shadowInnerInner2"></feComposite>
            <feColorMatrix values="0 0 0 0 0.878431373   0 0 0 0 0.878431373   0 0 0 0 0.878431373  0 0 0 1 0" type="matrix" in="shadowInnerInner2" result="shadowMatrixInner2"></feColorMatrix>
            <feMerge>
                <feMergeNode in="shadowMatrixInner1"></feMergeNode>
                <feMergeNode in="shadowMatrixInner2"></feMergeNode>
            </feMerge>
        </filter>
    </defs>
    <g id="Symbols" stroke="none" stroke-width="1" fill="none" fill-rule="evenodd">
        <g id="item-card-c" transform="translate(-360.000000, -134.000000)">
            <g id="item-card-b">
                <g id="card__btn-heroku" transform="translate(360.000000, 134.000000)">
                    <g>
                        <g id="Rectangle-3-Copy-2">
                            <use fill="#7056BF" fill-rule="evenodd" xlink:href="#path-1"></use>
                            <use fill="black" fill-opacity="1" filter="url(#filter-2)" xlink:href="#path-1"></use>
                        </g>
                        <path d="M35.5919169,9 L15.510213,9 C14.1240176,9 13,10.1284 13,11.52 L13,34.48 C13,35.8716 14.1240176,37 15.510213,37 L35.5919169,37 C36.9781123,37 38.1021298,35.8716 38.1021298,34.48 L38.1021298,11.52 C38.1021298,10.1284 36.9781123,9 35.5919169,9 Z M36.7075671,34.48 C36.7075671,35.09775 36.2072677,35.6 35.5919169,35.6 L15.510213,35.6 C14.8952108,35.6 14.3945628,35.09775 14.3945628,34.48 L14.3945628,11.52 C14.3945628,10.90225 14.8952108,10.4 15.510213,10.4 L35.5919169,10.4 C36.2072677,10.4 36.7075671,10.90225 36.7075671,11.52 L36.7075671,34.48 Z M19.2755325,32.8 L22.4132987,30 L19.2755325,27.2 L19.2755325,32.8 Z M30.6122819,21.45125 C30.0502731,20.8804 29.0182966,20.2 27.2942684,20.2 C25.4035899,20.2 23.4571289,20.69385 22.064658,21.14885 L22.064658,13.2 L19.2755325,13.2 L19.2755325,25.3422 L21.245701,24.4462 C21.2774273,24.43185 24.458425,23 27.2942684,23 C28.7100982,23 29.0238749,23.78505 29.0374719,24.4385 L29.0374719,32.8 L31.8265974,32.8 L31.8265974,24.4 C31.8283406,24.2208 31.8116059,22.66925 30.6122819,21.45125 Z M26.9456277,17.75 L29.7347533,17.75 C30.9961353,16.315 31.6383315,14.7904 31.8265974,13.2 L29.0374719,13.2 C28.7299708,14.7869 28.0417541,16.30625 26.9456277,17.75 Z" id="logo" fill="#FFFFFF" fill-rule="nonzero"></path>
                    </g>
                </g>
            </g>
        </g>
    </g>
</svg>