<?xml version="1.0" encoding="UTF-8"?>
<svg width="25px" height="32px" viewBox="0 0 25 32" version="1.1" xmlns="http://www.w3.org/2000/svg" xmlns:xlink="http://www.w3.org/1999/xlink">
    <!-- Generator: Sketch 46.2 (44496) - http://www.bohemiancoding.com/sketch -->
    <title>flask</title>
    <desc>Created with Sketch.</desc>
    <defs></defs>
    <g id="Page-1" stroke="none" stroke-width="1" fill="none" fill-rule="evenodd">
        <g id="flask" fill-rule="nonzero" fill="#000000">
            <path d="M7.44082675,19.7788207 C6.49249848,19.0328024 5.48065653,18.3179088 4.78939818,17.310541 C3.33422492,15.5341033 2.21412766,13.4778359 1.44836474,11.3166201 C0.985386018,9.91114894 0.826844985,8.40442553 0.229641337,7.05351976 C-0.394212766,6.07202432 0.337118541,4.99987842 1.41208511,4.68804863 C1.89033435,4.59584195 2.731769,4.14434043 1.71603647,4.46745289 C0.80525228,5.13527052 0.717519757,3.8605228 1.65125836,3.77979331 C2.28853495,3.69527052 2.52313678,3.17383587 2.30497264,2.70443769 C1.62062006,2.25799392 3.96381763,1.76817021 2.78468085,1.10220061 C1.55720365,-0.222541033 4.50237082,-0.477568389 3.77561094,1.02720973 C3.60189666,2.18417021 5.83431003,0.81468693 5.31589058,2.15100304 C5.84257751,2.79285106 7.28763526,2.29738602 7.25135562,3.1972766 C8.01838298,3.24999392 8.28167781,3.89495441 9.00094833,3.94455927 C9.74764742,4.28167781 11.0999149,4.54682067 11.3535805,5.38767173 C10.6133982,5.97349544 8.89989058,4.17741033 8.81711854,5.79929483 C9.04102128,8.19569605 8.98392705,10.6641702 9.8603769,12.9460912 C10.2749179,14.3276353 11.2804377,15.4151489 12.1880122,16.4913799 C13.0568754,17.5451429 14.2334833,18.287465 15.4330456,18.912 C16.4849605,19.4080486 17.6190638,19.7368024 18.7658116,19.9435866 C19.2307356,19.5879878 20.0517447,18.2657751 20.7767538,18.8229058 C20.811769,19.4501641 19.3376292,20.133155 20.7075988,20.0638055 C21.5127538,19.8208389 22.0705653,20.6857143 22.733228,19.9053617 C23.3438541,20.6286201 25.2708571,19.4436474 24.8365714,20.9217751 C24.2488997,21.3009119 23.3921945,21.0718541 22.8039392,21.5934833 C21.8340182,21.1088146 21.0617386,22.0266018 19.9875502,21.9108571 C18.7950881,22.1244498 17.5814225,22.2104316 16.3725228,22.2121824 C14.3887173,22.0556839 12.3630881,21.9896413 10.4759635,21.2988693 C9.41257143,20.9899574 8.3752462,20.3843891 7.44082675,19.7788207 Z M9.11610942,20.5051915 C10.1541155,20.9535805 11.1692644,21.426772 12.3070638,21.569848 C14.1120973,21.8204985 15.9761702,22.2071246 17.7875258,21.8548328 C16.9677812,21.4847416 16.1199271,21.9985897 15.3032948,21.5902736 C14.3238419,21.8007538 13.2726079,21.5361945 12.2764255,21.4057629 C11.1442675,20.9015441 9.92204255,20.5548936 8.86176292,19.8996231 C7.53624316,19.4157325 9.54679635,20.520462 9.90482675,20.6102371 C10.7329362,21.0800243 8.99394529,20.3690213 8.74835258,20.1738116 C8.05466261,19.7845593 7.9663465,19.8659696 8.67987842,20.2609605 C8.82353799,20.344997 8.96544681,20.4334103 9.11610942,20.5051915 L9.11610942,20.5051915 Z M7.14066869,19.109155 C8.1468693,19.4818723 7.13619453,18.401848 6.67574468,18.4642918 C6.47148936,18.1099574 5.8953921,17.8860547 6.30176292,17.6959027 C5.5710152,17.9497629 5.536,16.7310395 5.19265653,16.9054347 C4.41920973,16.6612036 4.89172036,15.7961337 3.97013982,15.2645836 C3.88610334,14.7047295 3.05488146,14.2194772 2.79032219,13.3754164 C2.67331307,12.9429787 1.85094225,11.7021763 2.35593921,12.856997 C2.78584802,13.9687295 3.54207903,14.9216292 4.171769,15.8724863 C4.660231,16.7780182 5.23778723,17.7251793 6.12756231,18.2899939 C6.42781763,18.5780912 6.71708207,19.0187964 7.14057143,19.109155 L7.14066869,19.109155 Z M11.5724255,20.9796474 C11.984535,21.2398298 13.9785532,21.5495198 12.7300669,21.0864438 C12.5206565,21.1304073 10.4148815,20.4905046 11.5724255,20.9796474 L11.5724255,20.9796474 Z M7.01860182,17.2825289 C7.50200608,17.6532036 8.9687538,17.3301884 7.75888146,17.0612523 C7.2087538,16.768 5.96853495,16.5671489 6.81395745,17.238079 L7.01860182,17.2825289 Z M9.35907599,18.5226505 C10.5408389,18.8566565 8.36503343,17.7746869 9.06728267,18.3993191 L9.22319757,18.4699331 L9.35907599,18.5226505 Z M9.36938602,17.8963647 C10.2279392,18.0068571 8.34733131,17.3118055 9.18049848,17.833921 L9.36938602,17.8963647 Z M12.353459,19.7311611 C13.1555988,19.2523283 12.8910395,20.8537872 13.7140912,19.8666505 C14.5255684,19.273921 13.0131064,20.5993435 14.0129848,19.9722796 C14.7367295,19.4881945 15.8051793,20.2018237 16.4800973,20.4339939 C16.9652523,20.4104559 17.4372766,20.8537872 17.9351733,20.5839757 C18.8930334,20.3257386 16.0615684,20.2012401 16.803696,19.7438055 C15.9273435,19.9990274 15.2799514,19.4398541 14.8486809,18.8782492 C13.8653374,18.6511368 12.7288024,18.148766 12.2378116,17.2780547 C12.0374468,16.9518298 12.5266869,17.3245471 12.0648754,16.7902736 C11.4727295,16.2635866 11.1770456,15.6650213 10.7794286,15.0246322 C10.3042918,14.7714529 10.2483647,14.0254347 10.2006079,14.9999271 C10.2044985,14.3848267 9.62694225,13.970772 9.48571429,14.142541 C9.48318541,13.5502979 10.1040243,13.8473435 9.66954407,13.4091672 C9.57617021,12.7953313 9.268231,12.1556231 9.17592705,11.4623222 C9.03236474,11.1284134 9.15550152,10.4129362 8.68503343,11.1690699 C8.51384802,11.9685836 8.62842553,10.1870881 8.89493009,10.7741763 C9.24469301,10.1750274 8.76887538,10.2455441 8.74981155,10.3283161 C8.97760486,9.82273556 8.89424924,9.10521581 8.69009119,9.3787234 C8.81157447,8.84250456 8.88218845,7.40581155 8.50888754,7.66083891 C8.73522188,7.09991489 8.93821277,5.09500304 7.95477204,5.85969605 C7.55666869,5.86533739 6.86667477,6.00413374 6.54103343,6.16627356 C7.56308815,6.72982371 6.43793313,6.36975076 6.02134954,6.28007295 C5.96727052,6.80160486 5.55516109,6.57643769 5.03995137,6.58149544 C5.86300304,6.68323404 4.63922188,7.42283283 4.16807295,7.13551368 C3.55491793,7.42808511 4.6966079,8.15951368 4.18013374,8.38584802 C4.24384195,8.72617629 3.24133739,8.26261398 3.31963526,9.0499696 C2.72486322,8.79922188 3.23822492,9.98361094 3.5358541,9.58297872 C4.54779331,9.85706991 4.24821884,10.4810213 4.27360486,11.0743343 C4.10883891,11.4196231 3.45950152,10.2621763 4.12916717,10.3156717 C3.60063222,9.4575076 3.54480243,10.0052036 3.10584802,10.4039878 C3.00410942,10.4326809 4.22526444,10.971234 3.45891793,11.237155 C4.13305775,11.3415198 4.15280243,11.9317204 4.29023708,12.3051185 C4.69534347,12.7272462 4.61189058,11.8387356 5.09733739,12.3464559 C4.78998176,11.8941763 3.47156231,11.0722918 4.53320365,11.3358784 C4.52736778,10.8810699 4.34100912,10.5139939 4.66665046,10.522845 C4.98917933,9.93964742 4.32894833,11.9615805 5.05531915,11.2200365 C5.25617021,11.132304 5.30655319,10.6361581 5.66779331,11.2671125 C6.19243769,11.7835866 5.8573617,12.1573739 5.1169848,11.6842796 C5.24926444,12.1339331 6.10723404,12.2941277 5.94567781,12.9970578 C6.11666869,13.6152705 6.35593921,13.3874772 6.56447416,13.3518784 C6.72787842,13.9522918 6.82096049,13.5109058 6.82854711,13.2246565 C7.57709422,13.3851429 7.40153191,13.827696 7.63613374,14.1368024 C8.15192705,14.369459 6.89779939,12.5587842 7.78319757,13.5923161 C8.71479635,14.4337508 8.13296049,14.7847781 7.29668085,14.6500669 C7.82579939,14.6072705 7.99610942,15.3656413 8.65838298,15.3388936 C9.26190881,15.62631 9.67090578,16.7291915 8.63037082,16.2699088 C8.26971429,15.9442675 6.9918541,15.5429544 8.03569605,16.161848 C8.99861398,16.6082918 9.7643769,16.8747964 10.6935441,17.435234 C11.3582492,17.90969 11.6455684,18.4533009 11.8974833,18.5609726 C11.3385046,18.8279635 10.2134468,18.3478663 11.0490456,18.200997 C10.5275137,18.1061641 9.94120365,17.8422857 10.4403647,18.4916231 C10.8652158,18.846541 11.9445593,18.8088997 12.1386018,18.8489726 C11.9745167,19.21031 11.6928389,19.239003 12.144924,19.2669179 C11.6405106,19.5359514 12.3071611,19.5779696 12.3535562,19.7311611 L12.353459,19.7311611 Z M11.3218723,16.8176049 C11.0147112,16.4964377 10.9352462,15.8954407 11.2672097,16.4180426 C11.4377143,16.4868085 11.8123769,17.4008997 11.3218723,16.8176049 Z M9.3541155,13.5770456 C8.98840122,12.7578845 9.61361702,13.1292401 9.43552584,13.7112705 L9.3541155,13.5770456 Z M5.98643161,11.3312097 C5.82302736,11.0622736 5.55263222,10.2735562 5.63978116,10.0326322 C5.71798176,10.424997 6.47362918,11.7205593 6.00987234,10.5694347 C5.4979696,9.60457143 6.62244377,10.8822371 6.73818845,11.1233556 C6.79226748,11.3625289 6.42207903,11.0578967 6.67263222,11.6194043 C6.2153921,10.9801824 6.40291793,11.9724742 5.98643161,11.3312097 Z M4.28761094,9.9041459 C3.90020669,9.51858967 3.61969605,9.163769 4.30599392,9.66487538 C4.5699696,9.67508815 3.71841945,8.85787234 4.36970213,9.40537386 C5.05395745,9.53016413 4.70730699,10.5280973 4.28761094,9.9041459 Z M4.51978116,9.31394529 C3.39345897,8.31075988 5.93488146,9.83790881 4.70361094,9.49952584 L4.51978116,9.31394529 Z M7.74750152,11.1888146 C7.25972036,10.8968267 7.61775076,9.13137994 7.78446201,10.3385289 C8.25833435,10.1851429 7.75820061,10.9624802 8.11127052,10.9547964 C8.05602432,11.4450091 7.89767781,11.6214468 7.74750152,11.1888146 Z M4.7403769,8.98441337 C4.01672948,7.98579939 6.84372036,9.99431003 5.20413374,9.23759271 C5.03294833,9.19246201 4.82635866,9.17651064 4.7403769,8.98441337 Z M4.85174468,8.60342857 C5.28175076,8.51122188 6.63382371,9.35839514 5.39234043,8.8451307 C5.25441945,8.69242553 4.95990274,8.76177508 4.85174468,8.60333131 L4.85174468,8.60342857 Z M8.54497264,10.4440608 C8.59097872,9.58424316 8.80213982,9.93079635 8.54691793,10.5674894 L8.54497264,10.4439635 L8.54497264,10.4440608 Z M5.17164742,8.30395137 C5.34711246,8.04688146 4.70594529,7.14193313 5.26375684,7.9794772 C5.50497264,8.17089362 5.96143465,8.30006079 5.55827356,8.38079027 C6.19234043,8.93996353 5.40381763,8.532231 5.17164742,8.30395137 Z M7.97500304,7.84340426 C7.75119757,7.44958055 8.25755623,6.10703951 8.31416413,6.9396231 C8.07810334,7.5883769 8.24607903,7.95097872 8.41006687,7.08085106 C8.71421277,6.39649848 8.3446079,8.43243769 7.97500304,7.84340426 Z M8.90183587,17.4402918 C9.54222492,17.6050578 9.53911246,17.3409848 8.96019453,17.2621033 C8.64924012,16.9728389 7.66657751,16.6655805 8.54623708,17.2265046 C8.60420669,17.374152 8.78803647,17.3702614 8.90183587,17.4402918 Z M6.62876596,15.9302614 C6.98105775,16.1937508 7.95730091,16.675696 7.13113678,16.0309301 C7.40970213,15.7070395 6.59812766,15.5347842 6.86725836,15.3179818 C6.18222492,14.8986748 6.32646809,14.9362188 6.80685714,14.9496413 C5.98380547,14.5813009 6.92571429,14.6093131 6.88126444,14.4205228 C6.56389058,14.358079 5.30451064,13.8606687 6.04547112,14.4611793 C5.29244985,14.0775684 5.86601824,14.6042553 5.63841945,14.5489119 C4.86808511,14.3390152 6.32413374,15.1354164 5.51625532,14.9375805 C5.9577386,15.2873435 6.70502128,15.8343587 5.70261398,15.3076717 C5.5710152,15.4978237 6.42013374,15.7860182 6.62866869,15.9302614 L6.62876596,15.9302614 Z M14.629155,20.6222006 C14.9668571,20.2953921 14.6431611,21.1437325 15.1888146,20.542152 C15.1944559,20.111465 15.1722796,19.8572158 14.5617508,20.3804985 C14.3930942,20.4740669 14.3182006,20.8702249 14.629155,20.6222979 L14.629155,20.6222006 Z M9.09831003,17.0713678 C9.47433435,17.4053739 10.8238784,17.3162796 9.55448024,17.1128024 C9.36675988,16.8348207 8.36124012,16.9016413 9.09831003,17.0713678 Z M2.90986018,12.914383 C2.36420669,12.1358784 2.57089362,11.7860182 2.04430395,11.1500061 C1.94431611,10.6634894 1.14120365,9.5606079 1.6289848,10.7289483 C2.07542857,11.4127173 2.20770821,12.4709544 2.90995745,12.914383 L2.90986018,12.914383 Z M16.1033921,20.8428936 C16.6745289,20.4747477 15.9717933,20.5312584 15.9998055,20.8765471 L16.1033921,20.8428936 Z M17.0199149,21.091696 C17.7519271,20.5636474 16.5766809,20.9904438 16.8666261,21.1921702 L17.0199149,21.091696 Z M4.7403769,13.2654103 C5.27649848,13.3855319 6.88427964,14.5863587 5.93604863,13.348766 C5.45021277,13.2050091 5.74151976,12.0175076 5.24605471,12.2274043 C5.57869909,12.7832705 5.51936778,13.0191368 4.82100912,12.6694711 C3.94407295,12.2407295 4.32817021,12.8813131 4.50003647,13.0581398 C4.26582371,13.111538 4.80904559,13.2610334 4.74027964,13.2653131 L4.7403769,13.2654103 Z M2.29612158,11.3351976 C2.39212158,10.9375805 1.41140426,9.14976292 1.83314286,10.439003 C1.98506991,10.7093009 1.96931307,11.2212036 2.29612158,11.3351976 L2.29612158,11.3351976 Z M19.0799757,20.5999271 C19.6110395,20.4924498 20.8213982,20.8703222 21.0166079,20.4594772 C20.3717447,20.4435258 18.7861398,20.0039878 18.7110517,20.5636474 L18.8522796,20.5860182 L19.0800729,20.5999271 L19.0799757,20.5999271 Z M2.54054711,9.05240122 C3.07608511,8.84250456 1.56537386,8.61733739 2.43112462,9.01300912 L2.54054711,9.05240122 Z M0.868279635,7.18200608 C0.771598784,6.62740426 0.784924012,5.65359271 1.71039514,5.98244377 C0.475136778,6.22793921 2.56583587,7.51824924 2.30186018,6.49940426 C2.82144681,6.5249848 3.31827356,6.19234043 3.04534954,6.69655927 C4.06934954,6.58402432 4.77860182,5.69619453 5.76748936,5.82088754 C6.53762918,5.71856535 7.37974468,5.64153191 8.20979939,5.33116109 C8.89220669,5.28213982 9.5491307,4.54750152 9.17534347,4.1118541 C8.24481459,4.03306991 7.27032219,4.14939818 6.24194529,4.35423708 C5.10229787,4.59078419 4.06691793,5.04102128 2.91686322,5.23448024 C1.79550152,5.38524012 3.1420304,5.64911854 2.82076596,5.70825532 C2.23620669,5.91114894 3.51854103,6.04790274 2.74509422,6.26217629 C2.26752584,6.17133131 1.7701155,6.0072462 1.97427356,5.50351368 C0.900668693,5.64337994 -0.0431854103,6.08855927 0.805349544,7.18122796 L0.8683769,7.18181155 L0.868279635,7.18200608 Z M3.45629179,5.86407295 C3.70752584,4.93685106 4.80457143,6.62740426 3.86840122,5.98750152 C3.75703343,5.90346505 3.5725228,5.83537994 3.45629179,5.86407295 Z M3.96624924,5.42210334 C3.99951368,4.99530699 5.02283283,5.6478541 4.13490578,5.5753921 L3.96624924,5.42200608 L3.96624924,5.42210334 Z M4.75885714,5.06027964 C5.14295441,4.59914894 6.93203647,4.76566565 5.62246809,5.01495441 C5.27134347,4.75039514 5.00240729,5.17077204 4.75885714,5.06027964 Z M7.75703343,4.69631611 C7.99922188,4.06166565 8.69758055,4.44138602 7.86956839,4.56851064 C7.88727052,4.63659574 7.84476596,4.89677812 7.75703343,4.69631611 Z M23.3393799,20.6082918 C23.917617,20.6102371 25.0915015,20.4281581 23.8334833,20.4288389 C23.6357447,20.4594772 22.6830395,20.453155 23.3393799,20.6082918 Z M3.41495441,7.95136778 C3.88308815,7.91956231 4.14696657,7.4354772 3.32391489,7.46290578 C2.04877812,7.33130699 4.44897264,7.89991489 3.16051064,7.73709422 C2.98757447,7.85157447 3.40464438,7.98317325 3.41495441,7.95136778 Z M2.7591003,4.2543465 C3.59489362,3.9707234 4.73716717,3.65140426 5.13157447,4.39440729 C4.73016413,3.91168389 4.96943465,3.43586626 5.34847416,4.1424924 C5.88459574,4.85680243 6.15285106,3.81753191 5.80435258,3.57767781 C6.2019696,4.07119757 6.65347112,4.30472948 6.07017629,3.60899696 C6.70434043,2.8463465 4.8013617,3.70879027 4.36892401,3.69984195 C4.16097264,3.79321581 2.22044985,4.19462614 2.75919757,4.2543465 L2.7591003,4.2543465 Z M3.24882675,3.31700912 C3.72532523,2.95771429 4.89677812,3.53128267 4.14502128,2.95946505 C4.07129483,2.89468693 2.49911246,3.39326444 3.24882675,3.31700912 Z M4.98587234,3.38879027 C5.54300304,3.40279635 4.74553191,2.63956231 5.40945897,2.98553191 C5.30071733,2.62944681 4.63610942,2.56262614 4.31114894,2.420231 C4.12731915,2.74587234 4.68493617,3.39326444 4.98587234,3.38879027 L4.98587234,3.38879027 Z M4.26348936,1.98176292 C5.16201824,1.86290578 4.03433435,1.59513678 4.08199392,1.97232827 L4.2633921,1.98176292 L4.26348936,1.98176292 Z M2.93777508,0.945118541 C2.30487538,0.118954407 4.12780547,1.08381763 3.48469301,0.21874772 C2.94351368,-0.211744681 2.42392705,0.704097264 2.93777508,0.945118541 L2.93777508,0.945118541 Z M11.0564377,5.31783587 C11.3466748,4.80379331 9.85891793,4.62453495 10.861228,5.13575684 C10.9534347,5.16639514 10.9326201,5.35333739 11.0564377,5.31783587 Z M5.16551976,24.4615198 C5.10132523,24.7149909 5.06154407,25.1403283 5.04666261,25.7373374 C5.04666261,25.8546383 4.99384802,25.913386 4.88792705,25.913386 C4.78200608,25.913386 4.70827964,25.8621277 4.66655319,25.7600973 C4.55314286,25.4840608 4.44576292,25.2915745 4.3432462,25.1816657 C4.22244377,25.0532766 4.06176292,24.9756596 3.86130091,24.9492036 C3.64586018,24.9151611 3.10915502,24.8981398 2.25108815,24.8981398 C2.05461398,24.8981398 1.92593313,24.9190517 1.86562918,24.9607781 C1.82779331,24.9870395 1.80892401,25.0438419 1.80892401,25.1308936 L1.80892401,27.6995502 C1.80892401,27.7865046 1.86368389,27.8279392 1.97310638,27.8243404 C2.3097386,27.8204498 2.79732523,27.7974954 3.43596353,27.7562553 C3.56085106,27.7408875 3.64508207,27.7003283 3.68846201,27.6340912 C3.732231,27.5679514 3.77473556,27.397155 3.81607295,27.1210213 C3.84233435,26.9697751 3.93142857,26.9111246 4.08257751,26.9453617 C4.21096657,26.9718176 4.26621277,27.0304681 4.2472462,27.1210213 C4.14122796,27.6353556 4.10699088,28.3044377 4.14482675,29.1285593 C4.14881459,29.2266018 4.08646809,29.2797082 3.95778723,29.2872948 C3.851769,29.2986748 3.78562918,29.2418723 3.75936778,29.1170821 C3.66132523,28.6446687 3.47856535,28.3921702 3.21235258,28.3598784 C2.94584802,28.3279757 2.51175684,28.3118298 1.91095441,28.3118298 C1.8428693,28.3118298 1.80892401,28.3362432 1.80892401,28.385459 L1.80892401,30.9371915 C1.80892401,31.1262736 1.87866261,31.2549544 2.01843161,31.3227477 C2.12834043,31.3794529 2.36449848,31.430614 2.72719757,31.4759392 C2.91268085,31.4948085 2.99370213,31.5763161 2.97133131,31.7196839 C2.94847416,31.8444742 2.7823465,31.89369 2.47207295,31.867234 C1.57626748,31.7952584 0.837057751,31.7991489 0.25512462,31.8788085 C0.0924012158,31.9011793 0.0113799392,31.8350395 0.0113799392,31.6802918 C0.0113799392,31.5817629 0.0924012158,31.525155 0.25512462,31.510079 C0.625604863,31.4683526 0.810699088,31.1431976 0.810699088,30.5348085 L0.810699088,25.680535 C0.810699088,25.4313435 0.766151976,25.239538 0.677544073,25.1052158 C0.588547112,24.9709909 0.423100304,24.848924 0.181495441,24.7394043 C0.0301519757,24.6713191 -0.0264559271,24.5788207 0.0112826748,24.4615198 C0.0301519757,24.3898359 0.0604984802,24.3499574 0.101835866,24.3425653 C0.139671733,24.3310881 0.240048632,24.3386748 0.402285714,24.3653252 C0.640583587,24.4030638 1.20209119,24.4220304 2.08651672,24.4220304 C3.13006687,24.4220304 4.03141641,24.3991733 4.79144073,24.3539453 C5.04462006,24.3385775 5.17145289,24.3594894 5.17145289,24.4161945 C5.17145289,24.4315623 5.1695076,24.4464438 5.16551976,24.4615198 L5.16551976,24.4615198 Z M8.84279635,31.659769 C8.84279635,31.8110152 8.75768997,31.877155 8.58767173,31.8581884 C8.06633435,31.8089726 7.41972036,31.8163647 6.6486079,31.8806565 C6.49347112,31.8960243 6.39824924,31.8920365 6.36206687,31.8696657 C6.32607903,31.8468085 6.3083769,31.7845593 6.3083769,31.6821398 C6.3083769,31.5916839 6.41118541,31.515234 6.61719149,31.4525957 C6.82348936,31.3904438 6.92620061,31.2041824 6.92620061,30.8942979 L6.92620061,25.7624316 C6.92620061,25.4560486 6.88175076,25.2311733 6.79314286,25.0874164 C6.7041459,24.9437568 6.548231,24.8322918 6.32530091,24.7531185 C6.208,24.7112948 6.14925228,24.6527416 6.14925228,24.5770699 C6.14925228,24.4636596 6.23435866,24.3786505 6.40447416,24.3219453 C6.66164134,24.2387842 6.92824316,24.1104924 7.20427964,23.9363891 C7.4311003,23.8002188 7.57485714,23.7324255 7.63506383,23.7324255 C7.77483283,23.7324255 7.84505775,23.8285228 7.84505775,24.0213982 C7.84505775,24.0065167 7.83747112,24.1955015 7.82210334,24.5884498 C7.81111246,24.9626261 7.80722188,25.3311611 7.81111246,25.6943465 L7.83348328,30.7579331 C7.83348328,30.9886444 7.89028571,31.1560365 8.00369605,31.2600122 C8.11710638,31.3638906 8.31202432,31.4328511 8.58767173,31.4667964 C8.75768997,31.4855684 8.84279635,31.5498602 8.84279635,31.6596717 L8.84279635,31.659769 Z M13.9714529,31.3253739 C13.9714529,31.4049362 13.8269179,31.524766 13.537848,31.6852523 C13.2484863,31.8460304 13.0168997,31.9263708 12.8431854,31.9263708 C12.695538,31.9263708 12.5653009,31.8546869 12.4518906,31.7109301 C12.3384802,31.5672705 12.2588207,31.4955866 12.2135927,31.4955866 C12.1796474,31.4955866 12.0000973,31.5731064 11.6747477,31.7278541 C11.3499818,31.8829909 11.0227842,31.9606079 10.6939331,31.9606079 C10.3840486,31.9606079 10.1249362,31.8696657 9.91708207,31.6885593 C9.6902614,31.488 9.57685106,31.2158541 9.57685106,30.8717325 C9.57685106,30.2177264 10.3253982,29.7491064 11.8224924,29.4655805 C12.0792705,29.4163647 12.2099939,29.3123891 12.2134954,29.1536535 L12.2250699,28.7906626 C12.2478298,28.1707964 11.9737386,27.8609119 11.4027964,27.8609119 C11.2401702,27.8609119 11.0862006,28.0062249 10.9404012,28.2972401 C10.7951854,28.5886444 10.5860669,28.7453374 10.313921,28.7681945 C10.0040365,28.798152 9.8488997,28.6678176 9.8488997,28.3768024 C9.8488997,28.1952097 10.0796109,27.9838541 10.5407416,27.7416657 C11.0247295,27.4884863 11.489848,27.3616535 11.9359027,27.3616535 C12.7031246,27.3616535 13.0830395,27.7266869 13.0755502,28.4562675 L13.052693,30.7922675 C13.0491915,31.0380547 13.1531672,31.1608024 13.3646201,31.1608024 C13.4063465,31.1608024 13.4858116,31.151465 13.6028207,31.1324985 C13.7202188,31.1136292 13.788304,31.1040973 13.8072705,31.1040973 C13.916693,31.1040973 13.9714529,31.1781155 13.9714529,31.3253739 L13.9714529,31.3253739 Z M12.2250699,30.0327295 C12.2289605,29.9380912 12.2068815,29.8754529 12.1596109,29.8455927 C12.1123404,29.8153435 12.0380304,29.8093131 11.9359027,29.8282796 C11.0247295,29.9909058 10.5691429,30.2877568 10.5691429,30.7186383 C10.5691429,31.1534103 10.8053982,31.3706991 11.2779088,31.3706991 C11.4669909,31.3706991 11.6619088,31.3349058 11.8618845,31.2632219 C12.0965836,31.179769 12.2135927,31.0797812 12.2135927,30.962383 L12.2250699,30.0326322 L12.2250699,30.0327295 Z M18.1872827,30.6730213 C18.1872827,31.0737508 18.0328267,31.3924863 17.7249848,31.6286444 C17.4169483,31.864997 16.9964742,31.983076 16.4632705,31.983076 C16.1080608,31.983076 15.752462,31.9453374 15.3972523,31.8696657 C15.0908693,31.8015805 14.9132644,31.7393313 14.8641459,31.6826261 C14.8337994,31.6294225 14.8188207,31.3707964 14.8188207,30.9056778 C14.8188207,30.7053131 14.8641459,30.6012401 14.9549909,30.593848 C15.0456413,30.5823708 15.1232584,30.6316839 15.1874529,30.7411064 C15.4708815,31.2364742 15.9284134,31.4842067 16.5597568,31.4842067 C17.0924742,31.4842067 17.359076,31.2987234 17.359076,30.9281459 C17.359076,30.7659088 17.298772,30.6296413 17.1775805,30.5201216 C17.0452036,30.3953313 16.7885228,30.2497264 16.4065653,30.0834043 C15.8544924,29.8378116 15.4858602,29.6223708 15.300766,29.4368875 C15.100304,29.2404134 15.0002188,28.9758541 15.0002188,28.6430152 C15.0002188,28.2346018 15.1571064,27.9173252 15.4708815,27.6905046 C15.7618967,27.471076 16.1513435,27.3616535 16.6388328,27.3616535 C16.9452158,27.3616535 17.2248511,27.3859696 17.4784195,27.4352827 C17.7505653,27.4844985 17.8922796,27.5448024 17.9036596,27.6167781 C17.933617,27.828231 17.9962553,28.134614 18.0907964,28.535538 C18.1021763,28.5843647 18.0489726,28.6241459 17.9320608,28.6543951 C17.8071733,28.6808511 17.7241094,28.6599392 17.682383,28.5921459 C17.3838784,28.1042675 17.0059088,27.8605228 16.5482796,27.8605228 C16.0304438,27.8605228 15.7714286,28.026845 15.7714286,28.3594894 C15.7714286,28.5448754 15.841459,28.6921337 15.981228,28.8016535 C16.1061155,28.8961945 16.3989787,29.0438419 16.8602067,29.244304 C17.3440973,29.4521581 17.6729483,29.6392948 17.8470517,29.8055198 C18.0738723,30.0208632 18.1872827,30.3103222 18.1872827,30.6730213 Z M24.8583587,31.6654103 C24.8583587,31.79769 24.7693617,31.8677204 24.5917568,31.8752097 C24.3271003,31.8791003 23.9809362,31.8979696 23.5541398,31.9319149 C23.3422979,31.9736413 23.1910517,31.9472827 23.1004985,31.8527416 C22.5031003,31.2101155 21.9963526,30.5371429 21.5804498,29.8338237 C21.5466018,29.7735198 21.5032219,29.7432705 21.4501155,29.7432705 C21.385921,29.7432705 21.2745532,29.7999757 21.1158176,29.9134833 C20.9378237,30.0115258 20.8492158,30.1515866 20.8492158,30.332693 C20.8492158,30.4614711 20.8527173,30.6465653 20.8605957,30.8888511 C20.8681824,31.1305532 20.9283891,31.2891915 21.0417994,31.3648632 C21.1212644,31.4180669 21.3048997,31.4594043 21.5918298,31.4897508 C21.7695319,31.5125106 21.8585289,31.5786505 21.8585289,31.6881702 C21.8585289,31.7752219 21.8443283,31.8292036 21.8159271,31.8496292 C21.7877204,31.8704438 21.7128267,31.8752097 21.5918298,31.8638298 C21.2138602,31.8299818 20.5751246,31.8488511 19.6754286,31.920535 C19.4486079,31.9394043 19.3256657,31.911003 19.3067964,31.8354286 C19.299307,31.8091672 19.2953191,31.771234 19.2953191,31.7220182 C19.2953191,31.6051064 19.410772,31.5160122 19.6415805,31.4559027 C19.8494347,31.4026018 19.9533131,31.1588571 19.9533131,30.7241824 L19.9533131,25.7680729 C19.9533131,25.4581884 19.9231611,25.2427477 19.8623708,25.121848 C19.779307,24.9667112 19.6052036,24.8457143 19.3406444,24.7587599 C19.2161459,24.7174225 19.1536049,24.658772 19.1536049,24.5831003 C19.1536049,24.4731915 19.2426018,24.3881824 19.4201094,24.3279757 C19.7058677,24.2323952 19.9783169,24.100877 20.2309058,23.9365836 C20.4389544,23.8007052 20.5676353,23.7325228 20.616462,23.7325228 C20.771696,23.7325228 20.8492158,23.8305653 20.8492158,24.0275258 C20.8492158,24.0007781 20.8472705,24.1882067 20.8432827,24.5887416 C20.8392037,24.9592398 20.837388,25.3297593 20.8378359,25.7002796 L20.8492158,29.249848 C20.8492158,29.3482796 20.8755745,29.3971064 20.9283891,29.3971064 C20.9850942,29.3971064 21.0721459,29.3482796 21.1894468,29.249848 C21.5032219,29.0040608 21.8887781,28.6827964 22.3460182,28.2858602 C22.4369605,28.1914164 22.4821884,28.1157447 22.4821884,28.0590395 C22.4821884,27.9571064 22.3290942,27.8849362 22.0231003,27.843696 C21.8908207,27.828231 21.8281824,27.7546991 21.8355745,27.6223222 C21.8470517,27.4900426 21.9132888,27.4333374 22.0340912,27.4522067 C22.3066261,27.4901398 22.7035623,27.5109544 23.2248997,27.514845 C23.5879878,27.5183465 23.9490334,27.5203891 24.308231,27.5203891 C24.4251429,27.5242796 24.4838906,27.5940182 24.4838906,27.7302857 C24.4838906,27.8586748 24.3912948,27.9287052 24.2062006,27.9401824 C23.9147964,27.9511733 23.6407052,28.0173131 23.3840243,28.1386018 C23.0248267,28.3008389 22.640924,28.58631 22.2326079,28.9947234 C22.2026505,29.0174833 22.1872827,29.0457872 22.1872827,29.0797325 C22.1872827,29.1325471 22.2514772,29.2593799 22.3802553,29.4597447 C22.852766,30.1780426 23.2989179,30.7202918 23.7183222,31.0871733 C23.9868693,31.31769 24.2381033,31.4329483 24.4724134,31.4329483 C24.6465167,31.4329483 24.7542857,31.4452036 24.7956231,31.4699088 C24.8374468,31.4945167 24.8583587,31.5597812 24.8583587,31.6654103 Z" id="Shape"></path>
        </g>
    </g>
</svg>