<?xml version="1.0" encoding="UTF-8"?>
<svg width="36px" height="37px" viewBox="0 0 36 37" version="1.1" xmlns="http://www.w3.org/2000/svg" xmlns:xlink="http://www.w3.org/1999/xlink">
    <!-- Generator: Sketch 46.2 (44496) - http://www.bohemiancoding.com/sketch -->
    <title>postgres</title>
    <desc>Created with Sketch.</desc>
    <defs></defs>
    <g id="Page-1" stroke="none" stroke-width="1" fill="none" fill-rule="evenodd">
        <g id="postgres" transform="translate(2.000000, 2.000000)">
            <path d="M24.6630303,24.647539 C24.8919596,22.7479463 24.8233535,22.469378 26.2438788,22.7770829 L26.6045253,22.8086341 C27.6968081,22.8581341 29.1256566,22.6336537 29.9650909,22.2452195 C31.7721212,21.410078 32.8436364,20.0157073 31.0618182,20.3820878 C26.9974141,21.2172293 26.7179798,19.8464415 26.7179798,19.8464415 C31.0097778,13.503761 32.8038788,5.45232439 31.2552727,3.4815 C27.0314343,-1.8942 19.7200808,0.647846341 19.5977374,0.713846341 L19.5587879,0.721009756 C18.7557172,0.555043902 17.8569697,0.455882927 16.8473535,0.43962439 C15.0080808,0.409521951 13.6124444,0.919895122 12.5537778,1.71970244 C12.5537778,1.71970244 -0.489292929,-3.63257561 0.117494949,8.45073659 C0.246545455,11.0211951 3.81664646,27.9010171 8.07466667,22.8025171 C9.63094949,20.938178 11.1349495,19.3618244 11.1349495,19.3618244 C11.8817778,19.8560195 12.7759192,20.1081073 13.713697,20.0175585 L13.7861818,19.9559854 C13.7634747,20.1874683 13.7734949,20.4138805 13.8151919,20.6819049 C12.7184646,21.9026634 13.0407273,22.1170024 10.8476768,22.5666073 C8.62892929,23.0220878 9.93244444,23.8330024 10.7832727,24.0449268 C11.8150303,24.3019244 14.2018586,24.6659707 15.8150303,22.4171415 L15.7507879,22.6737366 C16.1810909,23.0166146 16.152,25.1381927 16.2130101,26.6540195 C16.274101,28.1699268 16.376,29.5845 16.6862222,30.4185146 C16.9964444,31.2523683 17.3625051,33.4005878 20.2446869,32.785339 C22.6534949,32.2711829 24.4951919,31.531178 24.6630303,24.6474585" id="Shape" stroke="#000000" stroke-width="2.991624" fill="#000000" fill-rule="nonzero"></path>
            <path d="M31.0622222,20.3819268 C26.9974141,21.2170683 26.7179798,19.8462805 26.7179798,19.8462805 C31.0097778,13.5031976 32.8038788,5.4516 31.255596,3.48101707 C27.0317576,-1.89436098 19.7200808,0.647846341 19.5980606,0.713846341 L19.5587879,0.72084878 C18.7557172,0.554802439 17.8569697,0.455882927 16.8468687,0.439463415 C15.007596,0.409441463 13.6124444,0.919734146 12.5537778,1.71938049 C12.5537778,1.71938049 -0.489535354,-3.6326561 0.117090909,8.45057561 C0.246141414,11.0211951 3.81616162,27.9010171 8.07434343,22.8025171 C9.63070707,20.938178 11.1344646,19.3618244 11.1344646,19.3618244 C11.8813737,19.8560195 12.7755152,20.1081073 13.7128889,20.0175585 L13.785697,19.9559854 C13.7630707,20.1874683 13.7734141,20.4138805 13.8148687,20.6819049 C12.717899,21.9026634 13.0402424,22.1170024 10.8473535,22.5666073 C8.62844444,23.0220878 9.9319596,23.8330024 10.7830303,24.0449268 C11.8147879,24.3019244 14.2017778,24.6659707 15.8146263,22.4171415 L15.750303,22.6737366 C16.1801212,23.0166146 16.4819394,24.9041341 16.4313535,26.6151439 C16.3807677,28.3262341 16.3469899,29.5009537 16.6856566,30.4185146 C17.0243232,31.3360756 17.3618586,33.4005878 20.2446061,32.785339 C22.6534141,32.2711829 23.9016566,30.9387878 24.0753131,28.716278 C24.1985455,27.136222 24.4774141,27.3697976 24.4950303,25.9571561 L24.7187071,25.2883829 C24.9766465,23.146522 24.7596768,22.4555341 26.2437172,22.776922 L26.6043636,22.8084732 C27.6966465,22.8579732 29.1262222,22.6334927 29.9652525,22.2450585 C31.7719596,21.4099171 32.8434747,20.0155463 31.0620606,20.3819268 L31.0622222,20.3819268 Z" id="Shape" fill="#336791" fill-rule="nonzero"></path>
            <path d="M15.9891717,21.6096878 C15.8772525,25.595122 16.0172929,29.6083244 16.4088081,30.5836756 C16.8005657,31.5590268 17.6389495,33.4561244 20.5219394,32.8409561 C22.9305051,32.326639 23.8068687,31.3313268 24.1871515,29.1344122 C24.4672323,27.5180561 25.0071919,23.0290902 25.0764444,22.1093561" id="Shape" stroke="#FFFFFF" stroke-width="0.997208" stroke-linecap="round" stroke-linejoin="round"></path>
            <path d="M12.5336566,1.63036098 C12.5336566,1.63036098 -0.518545455,-3.68312195 0.0882424242,8.40010976 C0.217292929,10.9707293 3.78755556,27.8511146 8.04565657,22.7523732 C9.60169697,20.8877927 11.0089697,19.4254098 11.0089697,19.4254098" id="Shape" stroke="#FFFFFF" stroke-width="0.997208" stroke-linecap="round" stroke-linejoin="round"></path>
            <path d="M19.5837576,0.660563415 C19.1319596,0.801658537 26.844202,-2.14757561 31.2271515,3.4307122 C32.7753535,5.40137561 30.9812525,13.4529732 26.6895354,19.7962171" id="Shape" stroke="#FFFFFF" stroke-width="0.997208" stroke-linecap="round" stroke-linejoin="round"></path>
            <path d="M26.6894545,19.7962171 C26.6894545,19.7962171 26.9691313,21.1674073 31.0340202,20.3317024 C32.8150303,19.965322 31.7431919,21.3598537 29.9368889,22.1953976 C28.4544646,22.8806707 25.1309091,23.0562951 25.0766061,22.1093561 C24.9368889,19.6661488 26.8258586,20.4084073 26.6895354,19.7962171 C26.566303,19.2448756 25.7215354,18.7037561 25.1627475,17.354378 C24.6749091,16.1766 18.4721616,7.14458049 26.8829091,8.48599024 C27.1910303,8.42248537 24.6892929,0.517536585 16.8180202,0.388997561 C8.94852525,0.260458537 9.20670707,10.028378 9.20670707,10.028378" id="Shape" stroke="#FFFFFF" stroke-width="0.997208" stroke-linecap="round" stroke-linejoin="bevel"></path>
            <path d="M13.7861818,20.631761 C12.6890505,21.852439 13.0117172,22.066778 10.8186667,22.5165439 C8.59975758,22.9721049 9.90343434,23.7828585 10.7542626,23.9947024 C11.7860202,24.251861 14.1730101,24.6159073 15.7858586,22.3665146 C16.2770101,21.6816439 15.7829495,20.588861 15.1082828,20.3102927 C14.782303,20.1757976 14.3464242,20.0072561 13.7861818,20.631761 L13.7861818,20.631761 Z" id="Shape" stroke="#FFFFFF" stroke-width="0.997208" stroke-linecap="round" stroke-linejoin="round"></path>
            <path d="M13.7143434,20.6104317 C13.603798,19.892722 13.9511111,19.0386659 14.3233131,18.0394902 C14.8826667,16.5403244 16.1732525,15.0409171 15.1408485,10.2853756 C14.3713131,6.74157805 9.20985859,9.54786585 9.20662626,10.028378 C9.20347475,10.5087293 9.44008081,12.463939 9.12040404,14.740778 C8.70327273,17.7118244 11.0184242,20.2245732 13.6843636,19.9674951" id="Shape" stroke="#FFFFFF" stroke-width="0.997208" stroke-linecap="round" stroke-linejoin="round"></path>
            <path d="M12.4862222,9.95634146 C12.4629495,10.1204561 12.7878788,10.5583902 13.2115556,10.6169049 C13.6345051,10.675661 13.9965253,10.3334268 14.0194747,10.1694732 C14.0424242,10.0053585 13.717899,9.82458293 13.2940606,9.76582683 C12.8708687,9.70699024 12.5086869,9.79262927 12.486303,9.95634146 L12.4862222,9.95634146 Z" id="Shape" stroke="#FFFFFF" stroke-width="0.5" fill="#FFFFFF" fill-rule="nonzero"></path>
            <path d="M25.3689697,9.62175366 C25.3919192,9.78586829 25.0673939,10.2238024 24.6436364,10.2823171 C24.2203636,10.3410732 23.8583434,9.99883902 23.8351515,9.83488537 C23.8127677,9.67077073 24.1373737,9.48999512 24.5607273,9.43123902 C24.9840808,9.37248293 25.3460202,9.45804146 25.3689697,9.62183415 L25.3689697,9.62175366 Z" id="Shape" stroke="#FFFFFF" stroke-width="0.5" fill="#FFFFFF" fill-rule="nonzero"></path>
            <path d="M26.8829091,8.48599024 C26.9526465,9.7733122 26.6045253,10.6501463 26.5606465,12.0205317 C26.4956768,14.0124439 27.514101,16.2923415 25.9795556,18.5750561" id="Shape" stroke="#FFFFFF" stroke-width="0.997208" stroke-linecap="round" stroke-linejoin="round"></path>
        </g>
    </g>
</svg>