<?xml version="1.0" encoding="UTF-8"?>
<svg width="32px" height="9px" viewBox="0 0 32 9" version="1.1" xmlns="http://www.w3.org/2000/svg" xmlns:xlink="http://www.w3.org/1999/xlink">
    <!-- Generator: Sketch 46.2 (44496) - http://www.bohemiancoding.com/sketch -->
    <title>mongodb</title>
    <desc>Created with Sketch.</desc>
    <defs>
        <path d="M0.709018868,0.0050709434 L0.482898113,0.0799230189 C0.482898113,0.0799230189 0.511735849,1.22437736 0.0989962264,1.30451321 C-0.173169811,1.6198717 0.140890566,14.7753962 1.12963019,1.34958491 C1.12963019,1.34958491 0.791215094,1.17966038 0.727154717,0.89109434 C0.663116981,0.602332075 0.709018868,0.0050709434 0.709018868,0.0050709434 L0.709018868,0.0050709434 Z" id="path-1"></path>
        <linearGradient x1="-70.4431054%" y1="56.0454455%" x2="160.735797%" y2="44.1472733%" id="linearGradient-3">
            <stop stop-color="#929669" offset="0%"></stop>
            <stop stop-color="#929669" offset="23.0769%"></stop>
            <stop stop-color="#FDFCF1" offset="100%"></stop>
        </linearGradient>
        <path d="M0.347909434,0.00079245283 C0.347909434,0.00079245283 2.31276226,1.29489811 1.85244528,3.98249057 C1.40913962,5.93507925 0.362498113,6.57698113 0.250030189,6.82203774 C0.126211321,6.9954717 0.00150188679,7.30286792 0.00150188679,7.30286792 L0.0850792453,1.86238491 C0.0850792453,1.86238491 -0.0877962264,0.201177358 0.347909434,0.00079245283 Z" id="path-4"></path>
        <linearGradient x1="-16.6073557%" y1="99.2992429%" x2="78.1504823%" y2="2.53574843%" id="linearGradient-6">
            <stop stop-color="#45AA3A" offset="0%"></stop>
            <stop stop-color="#3D9439" offset="100%"></stop>
        </linearGradient>
        <path d="M1.74899623,0.00394716981 C1.74899623,0.00394716981 -0.0941041509,1.26129057 0.0119398566,3.4797434 C0.11801283,5.69826415 1.41978113,6.7890566 1.67332075,6.9869434 C1.83723774,7.16166038 1.84401509,7.22898113 1.85669434,7.40135849 C1.97157736,7.15456604 1.95247547,3.71515472 1.96464906,3.31314717 C2.01187925,1.74823396 1.87797736,0.299350943 1.74899623,0.00394716981 Z" id="path-7"></path>
        <linearGradient x1="-9.62444561%" y1="43.9043949%" x2="152.344354%" y2="53.6889702%" id="linearGradient-9">
            <stop stop-color="#41A83B" offset="0%"></stop>
            <stop stop-color="#5EBC44" offset="100%"></stop>
        </linearGradient>
    </defs>
    <g id="Page-1" stroke="none" stroke-width="1" fill="none" fill-rule="evenodd">
        <g id="mongodb">
            <g id="g10" transform="translate(16.007547, 4.367547) scale(-1, 1) rotate(-180.000000) translate(-16.007547, -4.367547) translate(0.045283, 0.027925)">
                <g id="g12" transform="translate(0.067925, 0.000000)">
                    <g id="g14" transform="translate(1.381132, 0.211321)">
                        <g id="g16-Clipped">
                            <mask id="mask-2" fill="white">
                                <use xlink:href="#path-1"></use>
                            </mask>
                            <g id="path20"></g>
                            <g id="g16" mask="url(#mask-2)" fill-rule="nonzero" fill="url(#linearGradient-3)">
                                <path d="M0.709018868,0.0050709434 L0.482898113,0.0799230189 C0.482898113,0.0799230189 0.511735849,1.22437736 0.0989962264,1.30451321 C-0.173169811,1.6198717 0.140890566,14.7753962 1.12963019,1.34958491 C1.12963019,1.34958491 0.791215094,1.17966038 0.727154717,0.89109434 C0.663116981,0.602332075 0.709018868,0.0050709434 0.709018868,0.0050709434" id="path30"></path>
                            </g>
                        </g>
                    </g>
                    <g id="g32" transform="translate(1.864151, 1.320755)">
                        <g id="g34-Clipped">
                            <mask id="mask-5" fill="white">
                                <use xlink:href="#path-4"></use>
                            </mask>
                            <g id="path38"></g>
                            <g id="g34" mask="url(#mask-5)" fill-rule="nonzero" fill="url(#linearGradient-6)">
                                <path d="M0.347909434,0.00079245283 C0.347909434,0.00079245283 2.31276226,1.29489811 1.85244528,3.98249057 C1.40913962,5.93507925 0.362498113,6.57698113 0.250030189,6.82203774 C0.126211321,6.9954717 0.00150188679,7.30286792 0.00150188679,7.30286792 L0.0850792453,1.86238491 C0.0850792453,1.86238491 -0.0877962264,0.201177358 0.347909434,0.00079245283" id="path46"></path>
                            </g>
                        </g>
                    </g>
                    <g id="g48" transform="translate(0.000000, 1.245283)">
                        <g id="g50-Clipped">
                            <mask id="mask-8" fill="white">
                                <use xlink:href="#path-7"></use>
                            </mask>
                            <g id="path54"></g>
                            <g id="g50" mask="url(#mask-8)" fill-rule="nonzero" fill="url(#linearGradient-9)">
                                <path d="M1.74899623,0.00394716981 C1.74899623,0.00394716981 -0.0941041509,1.26129057 0.0119398566,3.4797434 C0.11801283,5.69826415 1.41978113,6.7890566 1.67332075,6.9869434 C1.83723774,7.16166038 1.84401509,7.22898113 1.85669434,7.40135849 C1.97157736,7.15456604 1.95247547,3.71515472 1.96464906,3.31314717 C2.01187925,1.74823396 1.87797736,0.299350943 1.74899623,0.00394716981" id="path62"></path>
                            </g>
                        </g>
                    </g>
                    <path d="M24.0196981,1.9653283 C24.1500377,1.86108679 24.410717,1.81815849 24.6405283,1.81815849 C24.9384906,1.81815849 25.2302642,1.87343396 25.5157736,2.13080755 C25.8074717,2.3945434 26.0061887,2.79914717 26.0061887,3.44286792 C26.0061887,4.06209057 25.7702642,4.56483019 25.2861132,4.85910943 C25.0129057,5.03074717 24.6591698,5.0981434 24.2556226,5.0981434 C24.1376604,5.0981434 24.0196981,5.09203774 23.9513962,5.06141132 C23.9327547,5.04914717 23.8954717,5.00009057 23.8954717,4.97550189 C23.8830943,4.86518491 23.8830943,4.02529811 23.8830943,3.52871698 C23.8830943,3.0198717 23.8830943,2.30869434 23.8954717,2.22279245 C23.9018113,2.14926038 23.9389434,2.02052075 24.0196981,1.9653283 L24.0196981,1.9653283 Z M22.7806038,5.37406038 C22.8861132,5.37406038 23.2870943,5.35569057 23.473434,5.35569057 C23.8210566,5.35569057 24.0630943,5.37406038 24.7148679,5.37406038 C25.2612075,5.37406038 25.7206792,5.22691321 26.0496604,4.9449283 C26.4470189,4.60156226 26.6580377,4.12338113 26.6580377,3.54098113 C26.6580377,2.71329811 26.2793962,2.23510943 25.9007547,1.9653283 C25.5219623,1.68337358 25.0315472,1.52393962 24.3301132,1.52393962 C23.9575849,1.52393962 23.3181132,1.53620377 22.7842264,1.54224906 L22.7769057,1.54224906 C22.7521509,1.59138868 22.8226415,1.78255094 22.8663396,1.78753208 C23.0106415,1.80386415 23.0497358,1.80940377 23.1167547,1.83699623 C23.229434,1.88337358 23.2560755,1.9408 23.2686038,2.14316226 C23.2870943,2.5232 23.2809811,2.97689057 23.2809811,3.49192453 C23.2809811,3.8597283 23.2870943,4.57706415 23.274717,4.80392453 C23.2560755,4.99395472 23.1755472,5.04295094 23.0140377,5.07980377 C22.933283,5.0981434 22.8215849,5.11656604 22.6664151,5.13496604 C22.6539623,5.1717283 22.7495849,5.33732075 22.7806038,5.37406038 L22.7806038,5.37406038 Z" id="path64" fill="#C0BDBA" fill-rule="nonzero"></path>
                    <path d="M28.3019623,5.07361509 C28.2772075,5.06747925 28.2461132,5.00615849 28.2461132,4.97550189 C28.24,4.75486792 28.2338113,4.17856604 28.2338113,3.78009811 C28.2338113,3.76783396 28.2523019,3.74944151 28.2648302,3.74944151 C28.3455094,3.74324528 28.5440755,3.73711698 28.7116981,3.73711698 C28.9476226,3.73711698 29.0843019,3.76783396 29.158717,3.80462642 C29.3573585,3.9026566 29.4504151,4.11724528 29.4504151,4.35020377 C29.4504151,4.88357736 29.0779623,5.08593962 28.5255849,5.08593962 C28.4883019,5.08593962 28.382717,5.08593962 28.3019623,5.07361509 Z M29.7111698,2.62131321 C29.7111698,3.16082264 29.3139623,3.46733585 28.5875472,3.46733585 C28.5565283,3.46733585 28.3267925,3.47352453 28.2709434,3.4612 C28.2523019,3.45513208 28.2338113,3.44286792 28.2338113,3.43060377 C28.2338113,3.04430943 28.2274717,2.42511698 28.2461132,2.17995472 C28.258566,2.07570566 28.3331321,1.92853585 28.4261887,1.88564528 C28.5255849,1.83042264 28.7489057,1.81815849 28.9041509,1.81815849 C29.3325283,1.81815849 29.7111698,2.05731321 29.7111698,2.62131321 L29.7111698,2.62131321 Z M27.1808302,5.37406038 C27.2366792,5.37406038 27.4019623,5.35569057 27.824,5.35569057 C28.2213585,5.35569057 28.5440755,5.36789434 28.9289811,5.36789434 C29.4069434,5.36789434 30.0649811,5.1962566 30.0649811,4.48507925 C30.0649811,4.13564528 29.8167547,3.8536 29.4939623,3.71871698 C29.4753208,3.71258868 29.4753208,3.70032453 29.4939623,3.69418868 C29.9533585,3.57777358 30.3568302,3.2957283 30.3568302,2.75621887 C30.3568302,2.22898113 30.0278491,1.89787925 29.5498113,1.68941887 C29.2580377,1.56073208 28.8980377,1.51780377 28.5316226,1.51780377 C28.2523019,1.51780377 27.5037736,1.54846792 27.0877736,1.54224906 C27.0442264,1.56073208 27.1276226,1.7569283 27.1647547,1.78753208 C27.2641509,1.79363019 27.3407547,1.80079245 27.4463396,1.8314566 C27.5952453,1.86824906 27.6129057,1.9162717 27.6315472,2.13699623 C27.6440755,2.32700377 27.6440755,3.00754717 27.6440755,3.49192453 C27.6440755,4.15403774 27.6501887,4.60156226 27.6440755,4.8222566 C27.6377358,4.99395472 27.5756981,5.04914717 27.4577358,5.07980377 C27.3646792,5.0981434 27.2095094,5.11656604 27.0853585,5.13496604 C27.0541887,5.16562264 27.1498113,5.34953208 27.1808302,5.37406038 L27.1808302,5.37406038 Z" id="path66" fill="#C0BDBA" fill-rule="nonzero"></path>
                    <path d="M4.97222642,1.52661887 C4.96187925,1.54313208 4.9509434,1.59189434 4.95324528,1.65055849 C4.95495094,1.69516226 4.96379623,1.72349434 4.97217358,1.73319245 C5.08923774,1.75168302 5.14466415,1.76415094 5.21046792,1.78175094 C5.32022642,1.80896604 5.36158491,1.86824906 5.36804528,2.00861132 C5.38605283,2.33926792 5.38711698,2.95928302 5.38051321,3.3953434 L5.38060377,3.40819623 C5.38110189,3.45495094 5.38184151,3.5189283 5.32308679,3.56403019 C5.23699623,3.62075472 5.12966038,3.66766038 4.99384151,3.7084 C4.94186415,3.72378868 4.91311698,3.75111698 4.91464906,3.78307925 C4.9162717,3.81379623 4.94888302,3.85286038 5.0166566,3.86591698 C5.1964,3.88446038 5.66775094,3.9966717 5.85267925,4.08198491 C5.86362264,4.06869434 5.88089811,4.0398566 5.87756226,3.99389434 C5.87618113,3.97455849 5.87446792,3.95433208 5.87279245,3.93337358 C5.86750943,3.87175849 5.86161509,3.80191698 5.86161509,3.73227925 C5.86161509,3.71176604 5.88384151,3.69233208 5.90742642,3.69233208 C5.91942642,3.69233208 5.93051321,3.69701887 5.93953208,3.70592453 C6.29200755,3.98178113 6.60725283,4.08024906 6.76954717,4.08024906 C7.03623396,4.08024906 7.24375094,3.95295094 7.40415849,3.69124528 C7.41356226,3.67738868 7.42618113,3.67007547 7.44030189,3.67007547 C7.4537434,3.67007547 7.46645283,3.67700377 7.47390943,3.68812075 C7.79803774,3.93366792 8.11924528,4.08024906 8.33396226,4.08024906 C8.84218868,4.08024906 9.14573585,3.70023396 9.14573585,3.06394717 C9.14573585,2.88110189 9.14384906,2.64935094 9.14226415,2.43298868 C9.14067925,2.24319245 9.13939623,2.06524528 9.13939623,1.9421283 C9.13939623,1.91226415 9.17932075,1.82947925 9.23962264,1.81291321 C9.31388679,1.77676981 9.42128302,1.75831698 9.55683019,1.73493585 L9.56203774,1.73408302 C9.57237736,1.69764528 9.55079245,1.55575094 9.53011321,1.52670943 C9.4965283,1.52697358 9.44988679,1.52939623 9.39184906,1.53230943 C9.28633962,1.53773585 9.14173585,1.54501887 8.97335849,1.54501887 C8.63569811,1.54501887 8.45924528,1.53838491 8.29071698,1.52750943 C8.27803774,1.56960755 8.27358491,1.70539623 8.2890566,1.73369811 C8.38732075,1.75209057 8.43592453,1.76450566 8.4949434,1.78195472 C8.60241509,1.81736604 8.63335849,1.86603774 8.63962264,2.00861132 C8.64211321,2.11008302 8.66158491,3.00241509 8.62701887,3.21430189 C8.59516981,3.4338717 8.42943396,3.69089057 8.06709434,3.69089057 C7.93267925,3.69089057 7.7154717,3.6350566 7.50843019,3.47824151 C7.49557736,3.46577358 7.48818113,3.44153962 7.48818113,3.42562264 L7.48855849,3.42154717 C7.5129434,3.30716226 7.5129434,3.17378868 7.5129434,2.97196226 C7.5129434,2.85695849 7.51220377,2.73490566 7.51155472,2.61373585 C7.5101434,2.36772075 7.50881509,2.13540377 7.5129434,1.95990943 C7.5129434,1.8402717 7.58535849,1.81173585 7.64362264,1.78867925 C7.67524528,1.78166038 7.70037736,1.77562264 7.72550943,1.76963774 C7.77433962,1.7578717 7.82475472,1.74575849 7.89954717,1.73378868 C7.90973585,1.71020377 7.91064151,1.63977358 7.89660377,1.57953962 C7.88875472,1.5462566 7.87977358,1.53160755 7.87501887,1.52683019 C7.68724528,1.53325283 7.4945434,1.53888302 7.21656604,1.53888302 C7.13230943,1.53888302 6.99469434,1.53526038 6.87332075,1.53201509 C6.7749434,1.52939623 6.68175094,1.52683019 6.6288,1.52661887 C6.62113962,1.53873962 6.61040755,1.57756226 6.61040755,1.63349434 C6.61040755,1.68546415 6.61996226,1.72211321 6.62977358,1.73340377 C6.65586415,1.73823396 6.68071698,1.74262642 6.70442264,1.74684528 C6.76963774,1.75846038 6.82594717,1.76836981 6.87998491,1.78166038 C6.97199245,1.80969811 7.00651321,1.86079245 7.01323774,1.97765283 C7.03119245,2.25049811 7.04522264,3.03643774 7.00657358,3.23328302 C6.9408,3.54914717 6.76076226,3.7092 6.47160755,3.7092 C6.30206038,3.7092 6.08809057,3.6277434 5.91311698,3.49672453 C5.88378868,3.47511698 5.86161509,3.42072453 5.86161509,3.37052075 C5.86161509,3.2769434 5.86132075,3.16547925 5.86093585,3.04599245 C5.85975849,2.65123774 5.85836981,2.15993208 5.86798491,1.94729057 C5.87387925,1.88195472 5.89664151,1.80415849 6.02001509,1.7754717 C6.04690566,1.76795472 6.09354717,1.7601434 6.14758491,1.75123774 C6.17868679,1.74605283 6.21270943,1.74041509 6.24766792,1.73413585 C6.26022642,1.70035472 6.25253585,1.56786415 6.23101132,1.52661887 C6.17709434,1.52697358 6.11070189,1.53006792 6.03455094,1.53340377 C5.91821887,1.5385283 5.77358491,1.54501887 5.60869434,1.54501887 C5.41467925,1.54501887 5.27956981,1.5385283 5.17107925,1.53340377 C5.09831698,1.52998491 5.0352,1.52691321 4.97222642,1.52661887 L4.97222642,1.52661887" id="path68" fill="#414044" fill-rule="nonzero"></path>
                    <path d="M11.1308679,3.81957736 C11.0178868,3.81957736 10.9123774,3.79000755 10.8338868,3.73629434 C10.6183396,3.60533585 10.5086038,3.3438717 10.5086038,2.95978868 C10.5086038,2.24050566 10.8692075,1.73823396 11.3853585,1.73823396 C11.5376604,1.73823396 11.6618113,1.78195472 11.7649811,1.87196226 C11.9236226,2.00123774 12.0076981,2.26524528 12.0076981,2.63490566 C12.0076981,3.34351698 11.6553208,3.81957736 11.1308679,3.81957736 L11.1308679,3.81957736 L11.1308679,3.81957736 Z M11.2302642,1.47143396 C10.2975849,1.47143396 9.96528302,2.15480755 9.96528302,2.79421887 C9.96528302,3.24089057 10.1481509,3.59015094 10.5089811,3.83219623 C10.765434,3.98965283 11.0716226,4.08024906 11.3482264,4.08024906 C12.06,4.08024906 12.5572075,3.5690717 12.5572075,2.83708679 C12.5572075,2.33941887 12.3584906,1.94664151 11.982717,1.70114717 C11.8024906,1.59071698 11.4898113,1.47143396 11.2302642,1.47143396 L11.2302642,1.47143396 L11.2302642,1.47143396 Z" id="path70" fill="#414044" fill-rule="nonzero"></path>
                    <path d="M20.7892075,3.81957736 C20.6760755,3.81957736 20.5704906,3.79000755 20.4920755,3.73629434 C20.2766038,3.60533585 20.1668679,3.34395472 20.1668679,2.95978868 C20.1668679,2.24050566 20.5273208,1.73823396 21.0436226,1.73823396 C21.1959245,1.73823396 21.3200755,1.78195472 21.4232453,1.87202264 C21.5818113,2.00123774 21.6659623,2.26518491 21.6659623,2.63481509 C21.6659623,3.3434566 21.3135849,3.81957736 20.7892075,3.81957736 L20.7892075,3.81957736 L20.7892075,3.81957736 Z M20.8885283,1.47143396 C19.9557736,1.47143396 19.6234717,2.15474717 19.6234717,2.79416604 C19.6234717,3.24095094 19.8064906,3.59024151 20.1673208,3.83227925 C20.4236981,3.98971321 20.7298868,4.08024906 21.0064151,4.08024906 C21.7182642,4.08024906 22.2154717,3.56898868 22.2154717,2.83714717 C22.2154717,2.33935849 22.0167547,1.94658113 21.6409811,1.70123774 C21.4607547,1.59071698 21.1481509,1.47143396 20.8885283,1.47143396 L20.8885283,1.47143396 L20.8885283,1.47143396 Z" id="path72" fill="#414044" fill-rule="nonzero"></path>
                    <path d="M17.6680755,3.84404528 C17.3806038,3.84404528 17.1947925,3.61724528 17.1947925,3.2662717 C17.1947925,2.91206038 17.354566,2.49846792 17.8047547,2.49846792 C17.8820377,2.49846792 18.0221887,2.53278491 18.0916226,2.60926038 C18.1962264,2.70524528 18.2645283,2.9036 18.2645283,3.1130566 C18.2645283,3.57081509 18.0415094,3.84404528 17.6680755,3.84404528 L17.6680755,3.84404528 Z M17.6309434,1.42246792 C17.5229434,1.42246792 17.4443774,1.39106415 17.397434,1.36473962 C17.1698868,1.21901887 17.0643774,1.07349434 17.0643774,0.905954717 C17.0643774,0.747936604 17.1258113,0.622406038 17.2577358,0.510790189 C17.4175094,0.37556 17.6329811,0.309729057 17.9164528,0.309729057 C18.4738868,0.309729057 18.7238491,0.609198491 18.7238491,0.905954717 C18.7238491,1.11246792 18.6200755,1.25091321 18.4066415,1.32918491 C18.2421132,1.38923774 17.9673208,1.42246792 17.6309434,1.42246792 L17.6309434,1.42246792 L17.6309434,1.42246792 Z M17.6680755,0 C17.333283,0 17.092,0.0705778113 16.8858868,0.228979623 C16.685434,0.383549434 16.5956226,0.612765283 16.5956226,0.771169811 C16.5956226,0.816686792 16.6064151,0.934407547 16.705434,1.04687547 C16.7638491,1.11311698 16.8989434,1.2370566 17.2110943,1.45150189 C17.2206792,1.45510189 17.2273208,1.46456604 17.2273208,1.47603019 C17.2273208,1.48883019 17.2190943,1.49917736 17.2077736,1.50159245 C16.9504906,1.6 16.8729057,1.76144151 16.8495094,1.8490566 C16.8491321,1.85218113 16.8480755,1.85722264 16.8469434,1.86255849 C16.8395472,1.89693585 16.8326792,1.92941887 16.8791698,1.96276226 C16.9151698,1.98844528 16.9730566,2.02270189 17.0343396,2.05881509 C17.1247547,2.11217358 17.2272453,2.17264151 17.284,2.22123019 C17.2929811,2.22998491 17.2966038,2.24283774 17.2944906,2.25569057 C17.2923019,2.26869434 17.2847547,2.27933585 17.2736604,2.28481509 C16.8929057,2.41261887 16.7012075,2.69510943 16.7012075,3.12532075 C16.7012075,3.40306415 16.829434,3.65409811 17.0529057,3.81418113 C17.2060377,3.9350566 17.5904151,4.08039245 17.8393962,4.08039245 L17.8538868,4.08024906 C18.1101132,4.07417358 18.2544906,4.02060377 18.4543396,3.9466717 C18.5628679,3.90651321 18.6655849,3.89024151 18.809283,3.89024151 C19.0213585,3.89024151 19.1139623,3.95737358 19.193434,4.03446038 C19.1979623,4.02491321 19.2088302,3.99460377 19.2136604,3.92482264 C19.218717,3.85365283 19.1992453,3.74820377 19.1447547,3.67293585 C19.1013585,3.6129434 19.0009057,3.56942642 18.9060377,3.56942642 C18.8965283,3.56942642 18.8871698,3.5698717 18.8781887,3.57081509 C18.7805283,3.58039245 18.7346415,3.59460377 18.7341887,3.59483774 L18.7102642,3.58649811 C18.702717,3.57550189 18.7076226,3.56323774 18.7138113,3.54775849 C18.7153208,3.54404528 18.7168302,3.54050566 18.7173585,3.53818113 C18.7298113,3.48855849 18.7519245,3.34366038 18.7519245,3.30306415 C18.7519245,2.85191698 18.5737358,2.65513208 18.3811321,2.50963774 C18.1973585,2.37110943 17.982566,2.28779623 17.7404528,2.26226415 L17.7402264,2.26226415 C17.7353208,2.26226415 17.7123774,2.26020377 17.6661132,2.25613585 C17.6363019,2.25341887 17.5991698,2.25006038 17.5936604,2.25006038 L17.5882264,2.24935094 C17.5461132,2.23744151 17.4369811,2.18561509 17.4369811,2.08912453 C17.4369811,2.00881509 17.4864906,1.9093434 17.7224906,1.89153962 C17.7703396,1.88793962 17.8216604,1.88437736 17.8752453,1.88071698 C18.1868679,1.85904906 18.576,1.83204528 18.7591698,1.76998491 C19.0110943,1.67830189 19.1678491,1.45292075 19.1678491,1.18181132 C19.1678491,0.776913208 18.8796226,0.396226415 18.3969811,0.163620377 C18.1628679,0.0535082264 17.9251321,0 17.6680755,0 L17.6680755,0 L17.6680755,0 Z" id="path74" fill="#414044" fill-rule="nonzero"></path>
                    <path d="M16.1367547,1.7425434 C16.0002264,1.76093585 15.9008302,1.77933585 15.7829434,1.83449057 C15.7643019,1.84675472 15.7393962,1.90194717 15.7393962,1.92033962 C15.7269434,2.11040755 15.7269434,2.66217358 15.7269434,3.02384906 C15.7269434,3.31815849 15.6773585,3.57562264 15.5532075,3.75963774 C15.4042264,3.96804528 15.1932075,4.0906566 14.92,4.0906566 C14.6779623,4.0906566 14.3550943,3.92511698 14.0882264,3.69826415 C14.0819623,3.6921283 14.0409811,3.65327547 14.0418868,3.71365283 C14.0427925,3.77393962 14.0521509,3.8966717 14.0577358,3.97393962 C14.0633962,4.05117736 14.0170566,4.08758491 14.0170566,4.08758491 C13.8432453,4.00176604 13.3537358,3.88555472 13.1729811,3.86686038 C13.0408302,3.84144906 13.0075472,3.71456604 13.1482264,3.67075472 L13.1482264,3.67072453 C13.1482264,3.67052075 13.1495849,3.67028679 13.1503396,3.67004528 C13.2975849,3.62579623 13.3967547,3.57850566 13.4707925,3.52972075 C13.526717,3.48679245 13.5204528,3.4254717 13.5204528,3.37641509 C13.5266415,2.96568302 13.5266415,2.33413585 13.508,1.99086038 C13.5018113,1.85595472 13.4645283,1.80698868 13.3652075,1.7824 L13.3742642,1.78543396 C13.2997736,1.76713208 13.2376604,1.75480755 13.1446038,1.7425434 C13.1135094,1.71193962 13.1135094,1.53413585 13.1445283,1.49729057 C13.2066415,1.49729057 13.5233208,1.5157434 13.784,1.5157434 C14.144,1.5157434 14.3302642,1.49729057 14.4233962,1.49729057 C14.4606038,1.5402717 14.4730566,1.70581132 14.4482264,1.7425434 C14.3426415,1.7486717 14.2681509,1.76093585 14.1936604,1.77933585 C14.0943396,1.80386415 14.0695094,1.85289057 14.0633962,1.96326792 C14.0509434,2.25138868 14.0509434,2.86444528 14.0509434,3.28139623 C14.0509434,3.39787925 14.0819623,3.45306415 14.1192453,3.4837283 C14.2433208,3.59410566 14.4482264,3.66756981 14.6283019,3.66756981 C14.8020377,3.66756981 14.92,3.61241509 15.0069434,3.53891321 C15.1249057,3.4408 15.1683019,3.29979623 15.1807547,3.19554717 C15.2055849,2.9625283 15.1993208,2.49664151 15.1993208,2.09200755 C15.1993208,1.87128302 15.1807547,1.81609811 15.1000755,1.7916 C15.0627925,1.77316981 14.9634717,1.75480755 14.8455094,1.7425434 C14.8083019,1.70581132 14.8206792,1.53413585 14.8455094,1.49729057 C15.0069434,1.49729057 15.1932075,1.5157434 15.4662642,1.5157434 C15.8077736,1.5157434 16.0249811,1.49729057 16.1119245,1.49729057 C16.1491321,1.5402717 16.1615094,1.69970566 16.1367547,1.7425434" id="path76" fill="#414044" fill-rule="nonzero"></path>
                    <path d="M31.2302642,2.04504906 L31.3353208,2.04504906 C31.4202264,2.04504906 31.4525283,2.07467925 31.4525283,2.15144151 C31.4525283,2.22950943 31.4215094,2.25519245 31.3258868,2.25519245 L31.2302642,2.25519245 L31.2302642,2.04504906 Z M31.4538868,1.71503396 L31.3299623,1.98178113 L31.2302642,1.98178113 L31.2302642,1.71503396 L31.1575094,1.71503396 L31.1575094,2.3212 L31.3367547,2.3212 C31.4700377,2.3212 31.525283,2.26187925 31.525283,2.15144151 C31.525283,2.06261887 31.4834717,2.00601509 31.405434,1.98977358 L31.5333585,1.71503396 L31.4538868,1.71503396 L31.4538868,1.71503396 Z M31.3367547,2.45445283 C31.0928302,2.45445283 30.8989434,2.26187925 30.8989434,2.01677736 C30.8989434,1.77570566 31.0928302,1.58169057 31.3353208,1.58169057 C31.5764528,1.58169057 31.7704151,1.77570566 31.7704151,2.01677736 C31.7704151,2.26320755 31.5818868,2.45445283 31.3367547,2.45445283 L31.3367547,2.45445283 Z M31.3353208,1.53858868 C31.0659623,1.53858868 30.8558491,1.74873208 30.8558491,2.01807547 C30.8558491,2.28885283 31.0659623,2.49755472 31.3367547,2.49755472 C31.6007547,2.49755472 31.8147925,2.28611321 31.8147925,2.02488302 C31.8147925,1.7514717 31.6047547,1.53858868 31.3353208,1.53858868 L31.3353208,1.53858868 Z" id="path78" fill="#C0BDBA" fill-rule="nonzero"></path>
                </g>
            </g>
        </g>
    </g>
</svg>