<?xml version="1.0" encoding="UTF-8"?>
<svg width="50px" height="47px" viewBox="0 0 50 47" version="1.1" xmlns="http://www.w3.org/2000/svg" xmlns:xlink="http://www.w3.org/1999/xlink">
    <!-- Generator: Sketch 45.1 (43504) - http://www.bohemiancoding.com/sketch -->
    <title>card__btn-github</title>
    <desc>Created with Sketch.</desc>
    <defs>
        <path d="M0,0 L50,0 L50,41.1036529 L50,41.1036529 C50,43.8650767 47.7614237,46.1036529 45,46.1036529 L0,46.1036529 L0,0 Z" id="path-1"></path>
        <filter x="-1.0%" y="-1.1%" width="102.0%" height="102.2%" filterUnits="objectBoundingBox" id="filter-2">
            <feOffset dx="0" dy="1" in="SourceAlpha" result="shadowOffsetInner1"></feOffset>
            <feComposite in="shadowOffsetInner1" in2="SourceAlpha" operator="arithmetic" k2="-1" k3="1" result="shadowInnerInner1"></feComposite>
            <feColorMatrix values="0 0 0 0 0.878431373   0 0 0 0 0.878431373   0 0 0 0 0.878431373  0 0 0 1 0" type="matrix" in="shadowInnerInner1"></feColorMatrix>
        </filter>
    </defs>
    <g id="Symbols" stroke="none" stroke-width="1" fill="none" fill-rule="evenodd">
        <g id="item-card-c" transform="translate(-410.000000, -134.000000)">
            <g id="item-card-b">
                <g id="card__btn-github" transform="translate(410.000000, 134.000000)">
                    <g id="Rectangle-3-Copy-2">
                        <use fill="#333333" fill-rule="evenodd" xlink:href="#path-1"></use>
                        <use fill="black" fill-opacity="1" filter="url(#filter-2)" xlink:href="#path-1"></use>
                    </g>
                    <path d="M31.8037196,10.9469761 C29.5792669,9.6489147 27.1508828,9 24.5169434,9 C21.883236,9 19.4541559,9.6491467 17.2301672,10.9469761 C15.0059466,12.2450375 13.2450375,14.0059466 11.9469761,16.2301672 C10.6489147,18.4543879 10,20.883236 10,23.5167114 C10,26.6798516 10.9229112,29.5244505 12.7691977,32.0509721 C14.6152521,34.5774938 17.0000194,36.3258746 19.9234996,37.2961146 C20.2638493,37.3592197 20.5158054,37.3149069 20.6796001,37.1641044 C20.8433948,37.0128379 20.9252922,36.8237548 20.9252922,36.5970871 C20.9252922,36.5592705 20.9220441,36.2191529 20.91578,35.5765023 C20.9092839,34.9336197 20.9062679,34.3728664 20.9062679,33.8944745 L20.4714927,33.9696438 C20.1942481,34.0204526 19.8446183,34.042029 19.4223714,34.0357649 C19.0003564,34.0299648 18.5623332,33.985652 18.1087657,33.9035227 C17.6549662,33.8218573 17.2329513,33.6330062 16.8422568,33.3369693 C16.4517944,33.0407004 16.1745498,32.6530221 16.0107551,32.1743982 L15.821672,31.739391 C15.6956939,31.4498502 15.4973307,31.1282929 15.2263502,30.7756471 C14.9553697,30.4227693 14.6813732,30.1833413 14.4041286,30.0573632 L14.2718864,29.9629377 C14.183725,29.8998326 14.1018276,29.8239674 14.0261944,29.7358059 C13.9505611,29.6476445 13.8939522,29.559483 13.8561356,29.4710896 C13.818319,29.3829281 13.8496395,29.3103109 13.9505611,29.25347 C14.0514828,29.1966291 14.2340698,29.1687886 14.4987862,29.1687886 L14.8767204,29.2253975 C15.1286766,29.2757424 15.4404897,29.4267768 15.8123918,29.678965 C16.184062,29.9309212 16.489611,30.2585106 16.729039,30.6615012 C17.0190437,31.1784057 17.3684415,31.5721162 17.7781603,31.8430967 C18.187647,32.1140772 18.6003818,32.2493354 19.0161327,32.2493354 C19.4318835,32.2493354 19.7910255,32.2177829 20.0935584,32.1549098 C20.3958594,32.0920368 20.6793681,31.9973792 20.9440845,31.8714012 C21.0575343,31.0269072 21.3663314,30.3779925 21.8702437,29.9244251 C21.1519599,29.8487918 20.5062933,29.7351099 19.9327798,29.5840754 C19.3594983,29.4328089 18.7671926,29.1871169 18.1560945,28.8465353 C17.5447644,28.5064177 17.0376041,28.0841707 16.6343814,27.5802584 C16.2311588,27.0761141 15.9003213,26.4144392 15.642101,25.5954657 C15.3838808,24.7762602 15.2546547,23.8313086 15.2546547,22.7601469 C15.2546547,21.2351858 15.7525349,19.9373564 16.7480633,18.8661947 C16.2817356,17.7196318 16.3258163,16.4343306 16.8803055,15.0102911 C17.2457115,14.8968412 17.7876724,14.9819866 18.5059563,15.2654953 C19.2242401,15.549004 19.7501928,15.791912 20.0842783,15.9932913 C20.4183638,16.1946706 20.6860962,16.3651935 20.8877075,16.5036997 C22.0597909,16.1761103 23.2694588,16.0123156 24.5169434,16.0123156 C25.764428,16.0123156 26.9743279,16.1761103 28.1466432,16.5036997 L28.8649271,16.0501323 C29.3560792,15.7475993 29.9360888,15.4703547 30.6035638,15.2183985 C31.2715028,14.9664424 31.7821432,14.8970732 32.135021,15.0105231 C32.7020384,16.4345626 32.7523832,17.7198638 32.2860555,18.8664267 C33.2815839,19.9375884 33.7794641,21.2356498 33.7794641,22.7603789 C33.7794641,23.8315406 33.650006,24.7795082 33.3920177,25.6049778 C33.1335655,26.4306794 32.799944,27.0918903 32.3904572,27.5897706 C31.9807385,28.0876508 31.4703301,28.5066497 30.859232,28.8467673 C30.2479019,29.1871169 29.6555961,29.4328089 29.0823147,29.5840754 C28.5088012,29.7353419 27.8631346,29.8490238 27.1448507,29.9246571 C27.8000295,30.4916744 28.1276189,31.3862812 28.1276189,32.6087093 L28.1276189,36.5966231 C28.1276189,36.8232908 28.2065002,37.0123739 28.3640308,37.1634084 C28.5215614,37.3144429 28.7702695,37.3587557 29.1106191,37.2956506 C32.0343314,36.3254106 34.4190987,34.5770298 36.2651531,32.0502761 C38.1112076,29.5239865 39.0343508,26.6793875 39.0343508,23.5160154 C39.0336548,20.883004 38.3842761,18.4543879 37.0866787,16.2301672 C35.7886173,14.0059466 34.0277082,12.2450375 31.8037196,10.9469761 Z" id="Shape" fill="#FFFFFF" fill-rule="evenodd"></path>
                </g>
            </g>
        </g>
    </g>
</svg>