<?xml version="1.0" encoding="UTF-8"?>
<svg width="38px" height="32px" viewBox="0 0 38 32" version="1.1" xmlns="http://www.w3.org/2000/svg" xmlns:xlink="http://www.w3.org/1999/xlink">
    <!-- Generator: Sketch 45.1 (43504) - http://www.bohemiancoding.com/sketch -->
    <title>icon-redis</title>
    <desc>Created with Sketch.</desc>
    <defs></defs>
    <g id="Symbols" stroke="none" stroke-width="1" fill="none" fill-rule="evenodd">
        <g id="icon-redis" fill-rule="nonzero">
            <g>
                <path d="M35.9987156,24.6415452 C34.009017,25.6786959 23.7015101,29.9167233 21.5070992,31.0606137 C19.3126882,32.2049425 18.0936197,32.1937644 16.3601403,31.3650521 C14.6266608,30.5363397 3.65767452,26.1056548 1.68178411,25.1612164 C0.694167671,24.6891068 0.174934795,24.2908603 0.174934795,23.9145315 L0.174934795,20.1457644 C0.174934795,20.1457644 14.4550444,17.0369425 16.7605786,16.2099836 C19.0658937,15.3828055 19.8656745,15.3529973 21.8275375,16.0716822 C23.7896197,16.7903671 35.520469,18.9069699 37.4595375,19.6171068 C37.4595375,19.6171068 37.4586608,22.9830247 37.4586608,23.3323945 C37.45888,23.7049973 37.0115375,24.1137644 35.9987156,24.6415452 L35.9987156,24.6415452 Z" id="Shape" fill="#A41E11"></path>
                <path d="M35.9987156,20.8716822 C34.009017,21.9083945 23.7015101,26.1468603 21.5070992,27.2907507 C19.3126882,28.4350795 18.0936197,28.4239014 16.3601403,27.595189 C14.6264416,26.7669151 3.65767452,22.3353534 1.68178411,21.3913534 C-0.294106301,20.4469151 -0.335530959,19.7968329 1.60551014,19.0369425 C3.54633205,18.2766137 14.4550444,13.9967233 16.7607978,13.1695452 C19.0661129,12.3428055 19.8658937,12.3125589 21.8277567,13.031463 C23.7898389,13.7501479 34.0357567,17.8283945 35.974606,18.5385315 C37.9138937,19.249326 37.9884142,19.8345315 35.9987156,20.8716822 L35.9987156,20.8716822 Z" id="Shape" fill="#D82C20"></path>
                <path d="M35.9987156,18.4957918 C34.009017,19.5329425 23.7015101,23.7709699 21.5070992,24.9152986 C19.3126882,26.059189 18.0936197,26.048011 16.3601403,25.2192986 C14.6264416,24.3910247 3.65767452,19.9599014 1.68178411,19.015463 C0.694167671,18.5433534 0.174934795,18.1455452 0.174934795,17.7692164 L0.174934795,14.000011 C0.174934795,14.000011 14.4550444,10.8914082 16.7605786,10.0642301 C19.0658937,9.23727123 19.8656745,9.20724384 21.8275375,9.92592877 C23.7896197,10.6446137 35.520469,12.7607781 37.4595375,13.4711342 C37.4595375,13.4711342 37.4586608,16.8370521 37.4586608,17.1868603 C37.45888,17.5592438 37.0115375,17.968011 35.9987156,18.4957918 L35.9987156,18.4957918 Z" id="Shape" fill="#A41E11"></path>
                <path d="M35.9987156,14.7259288 C34.009017,15.7630795 23.7015101,20.0011068 21.5070992,21.1454356 C19.3126882,22.289326 18.0936197,22.2781479 16.3601403,21.4494356 C14.6264416,20.6211616 3.65767452,16.1898192 1.68178411,15.2456 C-0.294106301,14.3013808 -0.335530959,13.6512986 1.60551014,12.8909699 C3.54633205,12.1310795 14.4550444,7.85096986 16.7607978,7.02401096 C19.0661129,6.19705205 19.8658937,6.16702466 21.8277567,6.88570959 C23.7898389,7.60439452 34.0357567,11.6824219 35.974606,12.3927781 C37.9138937,13.1033534 37.9884142,13.6887781 35.9987156,14.7259288 L35.9987156,14.7259288 Z" id="Shape" fill="#D82C20"></path>
                <path d="M35.9987156,12.1220932 C34.009017,13.1592438 23.7015101,17.3974904 21.5070992,18.5418192 C19.3126882,19.6857096 18.0936197,19.6745315 16.3601403,18.8458192 C14.6264416,18.0175452 3.65767452,13.5862027 1.68178411,12.6419836 C0.694167671,12.169874 0.174934795,11.7718466 0.174934795,11.395737 L0.174934795,7.62653151 C0.174934795,7.62653151 14.4550444,4.51792877 16.7605786,3.69096986 C19.0658937,2.86379178 19.8656745,2.83398356 21.8275375,3.55266849 C23.7896197,4.27135342 35.520469,6.38751781 37.4595375,7.09787397 C37.4595375,7.09787397 37.4586608,10.4637918 37.4586608,10.8133808 C37.45888,11.1855452 37.0115375,11.5943123 35.9987156,12.1220932 L35.9987156,12.1220932 Z" id="Shape" fill="#A41E11"></path>
                <path d="M35.9987156,8.35223014 C34.009017,9.38938082 23.7015101,13.6276274 21.5070992,14.771737 C19.3126882,15.9156274 18.0936197,15.9044493 16.3601403,15.0759562 C14.6266608,14.247463 3.65767452,9.81633973 1.68178411,8.87212055 C-0.294106301,7.92790137 -0.335530959,7.2776 1.60551014,6.51749041 C3.54633205,5.75738082 14.4550444,1.47770959 16.7607978,0.650531507 C19.0661129,-0.176646575 19.8658937,-0.206454795 21.8277567,0.512449315 C23.7898389,1.23113425 34.0357567,5.30916164 35.974606,6.01951781 C37.9138937,6.72965479 37.9884142,7.31529863 35.9987156,8.35223014 Z" id="Shape" fill="#D82C20"></path>
                <polygon id="Shape" fill="#FFFFFF" points="23.7028252 4.7226411 20.4721403 5.05798356 19.7488526 6.79825753 18.5806334 4.85633973 14.8502225 4.52099726 17.6337841 3.51716164 16.7987156 1.97633973 19.404743 2.99551781 21.8617293 2.19113425 21.1976197 3.7845589"></polygon>
                <polygon id="Shape" fill="#FFFFFF" points="19.5559759 13.1653808 13.5263868 10.6645589 22.1663868 9.33853151"></polygon>
                <ellipse id="Oval" fill="#FFFFFF" cx="11.1965238" cy="7.47990137" rx="4.61786301" ry="1.7900274"></ellipse>
                <polygon id="Shape" fill="#7A0C00" points="27.5209074 5.19825753 32.6343321 7.21907945 27.525291 9.23770959"></polygon>
                <polygon id="Shape" fill="#AD2115" points="21.8639211 7.43606575 27.5209074 5.19825753 27.525291 9.23770959 26.9707704 9.45469589"></polygon>
            </g>
        </g>
    </g>
</svg>