<?xml version="1.0" encoding="UTF-8"?>
<svg width="27px" height="32px" viewBox="0 0 27 32" version="1.1" xmlns="http://www.w3.org/2000/svg" xmlns:xlink="http://www.w3.org/1999/xlink">
    <!-- Generator: Sketch 49.1 (51147) - http://www.bohemiancoding.com/sketch -->
    <title>android</title>
    <desc>Created with Sketch.</desc>
    <defs></defs>
    <g id="Page-1" stroke="none" stroke-width="1" fill="none" fill-rule="evenodd">
        <g id="android" fill="#A6D864" fill-rule="nonzero">
            <g id="Shape">
                <path d="M16.6827914,31.9376218 C17.7506433,31.9376218 18.6818869,31.0063782 18.6818869,29.9385263 L18.6818869,25.26977 L20.0167173,25.26977 C20.8177154,25.26977 21.3515478,24.7357505 21.3515478,23.9349396 L21.3515478,10.6003587 L5.34630799,10.6003587 L5.34630799,23.9350643 C5.34630799,24.7359376 5.88026511,25.2698947 6.6811384,25.2698947 L8.01609357,25.2698947 L8.01609357,29.9386511 C8.01609357,31.0065029 8.94708772,31.9377466 10.0151891,31.9377466 C11.0829162,31.9377466 12.0140975,31.0065029 12.0140975,29.9386511 L12.0140975,25.2698947 L14.6838207,25.2698947 L14.6838207,29.9386511 C14.6836959,31.0063782 15.6149396,31.9376218 16.6827914,31.9376218 Z"></path>
                <path d="M24.6855361,23.9350643 C25.7533879,23.9350643 26.6844444,23.0039454 26.6844444,21.9359688 L26.6844444,12.5985809 C26.6844444,11.5363431 25.7534503,10.6003587 24.6855361,10.6003587 C23.6175595,10.6003587 22.6864405,11.5364055 22.6864405,12.5985809 L22.6864405,21.9359688 C22.6864405,23.0038207 23.6174971,23.9350643 24.6855361,23.9350643 Z"></path>
                <path d="M2.01238207,23.9350643 C3.08035867,23.9350643 4.01147758,23.0039454 4.01147758,21.9359688 L4.01147758,12.5985809 C4.01147758,11.5363431 3.08048343,10.6003587 2.01238207,10.6003587 C0.944530214,10.6003587 0.0134736842,11.5364055 0.0134736842,12.5985809 L0.0134736842,21.9359688 C0.0135360624,23.0038207 0.944530214,23.9350643 2.01238207,23.9350643 Z"></path>
                <path d="M19.749614,0.201419103 C19.4827602,-0.0671189084 19.0854737,-0.0671189084 18.8186199,0.201419103 L17.0283041,1.98574659 L16.9457154,2.06821053 C15.8841637,1.53662378 14.6939259,1.2711423 13.3685146,1.2685848 C13.3620273,1.2685848 13.3556023,1.26839766 13.349115,1.26839766 L13.3489279,1.26839766 C13.342191,1.26839766 13.3360156,1.2685848 13.3293411,1.2685848 C12.0039922,1.2711423 10.8138168,1.53662378 9.75232749,2.06821053 L9.66955166,1.98574659 L7.87923587,0.201419103 C7.61219493,-0.0671189084 7.21509552,-0.0671189084 6.94824172,0.201419103 C6.68120078,0.468460039 6.68120078,0.864810916 6.94824172,1.13166472 L8.68004678,2.86378168 C8.1220117,3.23636647 7.616,3.6922885 7.17598441,4.21376998 C6.12254191,5.46245614 5.45054191,7.08759454 5.35815984,8.84840546 C5.35728655,8.86674464 5.35547758,8.88483431 5.35466667,8.90317349 C5.34899025,9.02306433 5.34637037,9.14357895 5.34637037,9.26459259 L21.3515478,9.26459259 C21.3515478,9.14364133 21.3486784,9.02312671 21.3432515,8.90317349 C21.3423782,8.88483431 21.3405692,8.86674464 21.3395088,8.84840546 C21.2473138,7.08759454 20.5751891,5.46239376 19.5216842,4.21389474 C19.0818558,3.69241326 18.5756569,3.23649123 18.0176218,2.86390643 L19.749614,1.13178947 C20.0167173,0.864810916 20.0167173,0.468522417 19.749614,0.201419103 Z M10.0126316,6.93395712 C9.46039766,6.93395712 9.01264717,6.48626901 9.01264717,5.93397271 C9.01264717,5.38167641 9.46033528,4.9339883 10.0126316,4.9339883 C10.5648655,4.9339883 11.012616,5.38167641 11.012616,5.93397271 C11.012616,6.48626901 10.5648655,6.93395712 10.0126316,6.93395712 Z M16.6852242,6.93395712 C16.1329903,6.93395712 15.6852398,6.48626901 15.6852398,5.93397271 C15.6852398,5.38167641 16.1329279,4.9339883 16.6852242,4.9339883 C17.2374581,4.9339883 17.6852086,5.38167641 17.6852086,5.93397271 C17.6852086,6.48626901 17.2375205,6.93395712 16.6852242,6.93395712 Z"></path>
            </g>
        </g>
    </g>
</svg>